<svg width="1573" height="842" viewBox="0 0 1573 842" fill="none" xmlns="http://www.w3.org/2000/svg">
<mask id="path-1-outside-1_636_516" maskUnits="userSpaceOnUse" x="0" y="0" width="1573" height="842" fill="black">
<rect fill="white" width="1573" height="842"/>
<path d="M1 51C1 23.3858 23.3858 1 51 1H1522C1549.61 1 1572 23.3858 1572 51V841H1V51Z"/>
</mask>
<path d="M1 51C1 23.3858 23.3858 1 51 1H1522C1549.61 1 1572 23.3858 1572 51V841H1V51Z" fill="#26B8E7" fill-opacity="0.58"/>
<path d="M1572 841V841.5H1572.5V841H1572ZM1 841H0.5V841.5H1V841ZM1572 840.5H1571V841.5H1572V840.5ZM1569 840.5H1567V841.5H1569V840.5ZM1565 840.5H1563.01V841.5H1565V840.5ZM1561.01 840.5H1559.01V841.5H1561.01V840.5ZM1557.01 840.5H1555.01V841.5H1557.01V840.5ZM1553.01 840.5H1551.01V841.5H1553.01V840.5ZM1549.01 840.5H1547.02V841.5H1549.01V840.5ZM1545.02 840.5H1543.02V841.5H1545.02V840.5ZM1541.02 840.5H1539.02V841.5H1541.02V840.5ZM1537.02 840.5H1535.02V841.5H1537.02V840.5ZM1533.02 840.5H1531.03V841.5H1533.02V840.5ZM1529.03 840.5H1527.03V841.5H1529.03V840.5ZM1525.03 840.5H1523.03V841.5H1525.03V840.5ZM1521.03 840.5H1519.03V841.5H1521.03V840.5ZM1517.04 840.5H1515.04V841.5H1517.04V840.5ZM1513.04 840.5H1511.04V841.5H1513.04V840.5ZM1509.04 840.5H1507.04V841.5H1509.04V840.5ZM1505.04 840.5H1503.04V841.5H1505.04V840.5ZM1501.05 840.5H1499.05V841.5H1501.05V840.5ZM1497.05 840.5H1495.05V841.5H1497.05V840.5ZM1493.05 840.5H1491.05V841.5H1493.05V840.5ZM1489.05 840.5H1487.05V841.5H1489.05V840.5ZM1485.06 840.5H1483.06V841.5H1485.06V840.5ZM1481.06 840.5H1479.06V841.5H1481.06V840.5ZM1477.06 840.5H1475.06V841.5H1477.06V840.5ZM1473.06 840.5H1471.06V841.5H1473.06V840.5ZM1469.07 840.5H1467.07V841.5H1469.07V840.5ZM1465.07 840.5H1463.07V841.5H1465.07V840.5ZM1461.07 840.5H1459.07V841.5H1461.07V840.5ZM1457.07 840.5H1455.07V841.5H1457.07V840.5ZM1453.08 840.5H1451.08V841.5H1453.08V840.5ZM1449.08 840.5H1447.08V841.5H1449.08V840.5ZM1445.08 840.5H1443.08V841.5H1445.08V840.5ZM1441.08 840.5H1439.08V841.5H1441.08V840.5ZM1437.09 840.5H1435.09V841.5H1437.09V840.5ZM1433.09 840.5H1431.09V841.5H1433.09V840.5ZM1429.09 840.5H1427.09V841.5H1429.09V840.5ZM1425.09 840.5H1423.09V841.5H1425.09V840.5ZM1421.1 840.5H1419.1V841.5H1421.1V840.5ZM1417.1 840.5H1415.1V841.5H1417.1V840.5ZM1413.1 840.5H1411.1V841.5H1413.1V840.5ZM1409.1 840.5H1407.1V841.5H1409.1V840.5ZM1405.11 840.5H1403.11V841.5H1405.11V840.5ZM1401.11 840.5H1399.11V841.5H1401.11V840.5ZM1397.11 840.5H1395.11V841.5H1397.11V840.5ZM1393.11 840.5H1391.12V841.5H1393.11V840.5ZM1389.12 840.5H1387.12V841.5H1389.12V840.5ZM1385.12 840.5H1383.12V841.5H1385.12V840.5ZM1381.12 840.5H1379.12V841.5H1381.12V840.5ZM1377.12 840.5H1375.13V841.5H1377.12V840.5ZM1373.13 840.5H1371.13V841.5H1373.13V840.5ZM1369.13 840.5H1367.13V841.5H1369.13V840.5ZM1365.13 840.5H1363.13V841.5H1365.13V840.5ZM1361.13 840.5H1359.14V841.5H1361.13V840.5ZM1357.14 840.5H1355.14V841.5H1357.14V840.5ZM1353.14 840.5H1351.14V841.5H1353.14V840.5ZM1349.14 840.5H1347.14V841.5H1349.14V840.5ZM1345.14 840.5H1343.15V841.5H1345.14V840.5ZM1341.15 840.5H1339.15V841.5H1341.15V840.5ZM1337.15 840.5H1335.15V841.5H1337.15V840.5ZM1333.15 840.5H1331.15V841.5H1333.15V840.5ZM1329.15 840.5H1327.16V841.5H1329.15V840.5ZM1325.16 840.5H1323.16V841.5H1325.16V840.5ZM1321.16 840.5H1319.16V841.5H1321.16V840.5ZM1317.16 840.5H1315.16V841.5H1317.16V840.5ZM1313.16 840.5H1311.17V841.5H1313.16V840.5ZM1309.17 840.5H1307.17V841.5H1309.17V840.5ZM1305.17 840.5H1303.17V841.5H1305.17V840.5ZM1301.17 840.5H1299.17V841.5H1301.17V840.5ZM1297.17 840.5H1295.18V841.5H1297.17V840.5ZM1293.18 840.5H1291.18V841.5H1293.18V840.5ZM1289.18 840.5H1287.18V841.5H1289.18V840.5ZM1285.18 840.5H1283.18V841.5H1285.18V840.5ZM1281.18 840.5H1279.19V841.5H1281.18V840.5ZM1277.19 840.5H1275.19V841.5H1277.19V840.5ZM1273.19 840.5H1271.19V841.5H1273.19V840.5ZM1269.19 840.5H1267.19V841.5H1269.19V840.5ZM1265.2 840.5H1263.2V841.5H1265.2V840.5ZM1261.2 840.5H1259.2V841.5H1261.2V840.5ZM1257.2 840.5H1255.2V841.5H1257.2V840.5ZM1253.2 840.5H1251.2V841.5H1253.2V840.5ZM1249.21 840.5H1247.21V841.5H1249.21V840.5ZM1245.21 840.5H1243.21V841.5H1245.21V840.5ZM1241.21 840.5H1239.21V841.5H1241.21V840.5ZM1237.21 840.5H1235.21V841.5H1237.21V840.5ZM1233.22 840.5H1231.22V841.5H1233.22V840.5ZM1229.22 840.5H1227.22V841.5H1229.22V840.5ZM1225.22 840.5H1223.22V841.5H1225.22V840.5ZM1221.22 840.5H1219.22V841.5H1221.22V840.5ZM1217.23 840.5H1215.23V841.5H1217.23V840.5ZM1213.23 840.5H1211.23V841.5H1213.23V840.5ZM1209.23 840.5H1207.23V841.5H1209.23V840.5ZM1205.23 840.5H1203.23V841.5H1205.23V840.5ZM1201.24 840.5H1199.24V841.5H1201.24V840.5ZM1197.24 840.5H1195.24V841.5H1197.24V840.5ZM1193.24 840.5H1191.24V841.5H1193.24V840.5ZM1189.24 840.5H1187.25V841.5H1189.24V840.5ZM1185.25 840.5H1183.25V841.5H1185.25V840.5ZM1181.25 840.5H1179.25V841.5H1181.25V840.5ZM1177.25 840.5H1175.25V841.5H1177.25V840.5ZM1173.25 840.5H1171.26V841.5H1173.25V840.5ZM1169.26 840.5H1167.26V841.5H1169.26V840.5ZM1165.26 840.5H1163.26V841.5H1165.26V840.5ZM1161.26 840.5H1159.26V841.5H1161.26V840.5ZM1157.26 840.5H1155.27V841.5H1157.26V840.5ZM1153.27 840.5H1151.27V841.5H1153.27V840.5ZM1149.27 840.5H1147.27V841.5H1149.27V840.5ZM1145.27 840.5H1143.27V841.5H1145.27V840.5ZM1141.27 840.5H1139.28V841.5H1141.27V840.5ZM1137.28 840.5H1135.28V841.5H1137.28V840.5ZM1133.28 840.5H1131.28V841.5H1133.28V840.5ZM1129.28 840.5H1127.28V841.5H1129.28V840.5ZM1125.28 840.5H1123.29V841.5H1125.28V840.5ZM1121.29 840.5H1119.29V841.5H1121.29V840.5ZM1117.29 840.5H1115.29V841.5H1117.29V840.5ZM1113.29 840.5H1111.29V841.5H1113.29V840.5ZM1109.3 840.5H1107.3V841.5H1109.3V840.5ZM1105.3 840.5H1103.3V841.5H1105.3V840.5ZM1101.3 840.5H1099.3V841.5H1101.3V840.5ZM1097.3 840.5H1095.3V841.5H1097.3V840.5ZM1093.31 840.5H1091.31V841.5H1093.31V840.5ZM1089.31 840.5H1087.31V841.5H1089.31V840.5ZM1085.31 840.5H1083.31V841.5H1085.31V840.5ZM1081.31 840.5H1079.31V841.5H1081.31V840.5ZM1077.32 840.5H1075.32V841.5H1077.32V840.5ZM1073.32 840.5H1071.32V841.5H1073.32V840.5ZM1069.32 840.5H1067.32V841.5H1069.32V840.5ZM1065.32 840.5H1063.32V841.5H1065.32V840.5ZM1061.33 840.5H1059.33V841.5H1061.33V840.5ZM1057.33 840.5H1055.33V841.5H1057.33V840.5ZM1053.33 840.5H1051.33V841.5H1053.33V840.5ZM1049.33 840.5H1047.33V841.5H1049.33V840.5ZM1045.34 840.5H1043.34V841.5H1045.34V840.5ZM1041.34 840.5H1039.34V841.5H1041.34V840.5ZM1037.34 840.5H1035.34V841.5H1037.34V840.5ZM1033.34 840.5H1031.35V841.5H1033.34V840.5ZM1029.35 840.5H1027.35V841.5H1029.35V840.5ZM1025.35 840.5H1023.35V841.5H1025.35V840.5ZM1021.35 840.5H1019.35V841.5H1021.35V840.5ZM1017.35 840.5H1015.36V841.5H1017.35V840.5ZM1013.36 840.5H1011.36V841.5H1013.36V840.5ZM1009.36 840.5H1007.36V841.5H1009.36V840.5ZM1005.36 840.5H1003.36V841.5H1005.36V840.5ZM1001.36 840.5H999.366V841.5H1001.36V840.5ZM997.367 840.5H995.368V841.5H997.367V840.5ZM993.37 840.5H991.371V841.5H993.37V840.5ZM989.372 840.5H987.373V841.5H989.372V840.5ZM985.375 840.5H983.376V841.5H985.375V840.5ZM981.377 840.5H979.379V841.5H981.377V840.5ZM977.38 840.5H975.381V841.5H977.38V840.5ZM973.382 840.5H971.384V841.5H973.382V840.5ZM969.385 840.5H967.386V841.5H969.385V840.5ZM965.388 840.5H963.389V841.5H965.388V840.5ZM961.39 840.5H959.391V841.5H961.39V840.5ZM957.393 840.5H955.394V841.5H957.393V840.5ZM953.395 840.5H951.397V841.5H953.395V840.5ZM949.398 840.5H947.399V841.5H949.398V840.5ZM945.4 840.5H943.402V841.5H945.4V840.5ZM941.403 840.5H939.404V841.5H941.403V840.5ZM937.405 840.5H935.407V841.5H937.405V840.5ZM933.408 840.5H931.409V841.5H933.408V840.5ZM929.411 840.5H927.412V841.5H929.411V840.5ZM925.413 840.5H923.414V841.5H925.413V840.5ZM921.416 840.5H919.417V841.5H921.416V840.5ZM917.418 840.5H915.42V841.5H917.418V840.5ZM913.421 840.5H911.422V841.5H913.421V840.5ZM909.423 840.5H907.425V841.5H909.423V840.5ZM905.426 840.5H903.427V841.5H905.426V840.5ZM901.429 840.5H899.43V841.5H901.429V840.5ZM897.431 840.5H895.432V841.5H897.431V840.5ZM893.434 840.5H891.435V841.5H893.434V840.5ZM889.436 840.5H887.437V841.5H889.436V840.5ZM885.439 840.5H883.44V841.5H885.439V840.5ZM881.441 840.5H879.443V841.5H881.441V840.5ZM877.444 840.5H875.445V841.5H877.444V840.5ZM873.446 840.5H871.448V841.5H873.446V840.5ZM869.449 840.5H867.45V841.5H869.449V840.5ZM865.452 840.5H863.453V841.5H865.452V840.5ZM861.454 840.5H859.455V841.5H861.454V840.5ZM857.457 840.5H855.458V841.5H857.457V840.5ZM853.459 840.5H851.461V841.5H853.459V840.5ZM849.462 840.5H847.463V841.5H849.462V840.5ZM845.464 840.5H843.466V841.5H845.464V840.5ZM841.467 840.5H839.468V841.5H841.467V840.5ZM837.47 840.5H835.471V841.5H837.47V840.5ZM833.472 840.5H831.473V841.5H833.472V840.5ZM829.475 840.5H827.476V841.5H829.475V840.5ZM825.477 840.5H823.479V841.5H825.477V840.5ZM821.48 840.5H819.481V841.5H821.48V840.5ZM817.482 840.5H815.484V841.5H817.482V840.5ZM813.485 840.5H811.486V841.5H813.485V840.5ZM809.488 840.5H807.489V841.5H809.488V840.5ZM805.49 840.5H803.491V841.5H805.49V840.5ZM801.493 840.5H799.494V841.5H801.493V840.5ZM797.495 840.5H795.496V841.5H797.495V840.5ZM793.498 840.5H791.499V841.5H793.498V840.5ZM789.5 840.5H787.502V841.5H789.5V840.5ZM785.503 840.5H783.504V841.5H785.503V840.5ZM781.505 840.5H779.507V841.5H781.505V840.5ZM777.508 840.5H775.509V841.5H777.508V840.5ZM773.511 840.5H771.512V841.5H773.511V840.5ZM769.513 840.5H767.514V841.5H769.513V840.5ZM765.516 840.5H763.517V841.5H765.516V840.5ZM761.518 840.5H759.52V841.5H761.518V840.5ZM757.521 840.5H755.522V841.5H757.521V840.5ZM753.523 840.5H751.525V841.5H753.523V840.5ZM749.526 840.5H747.527V841.5H749.526V840.5ZM745.528 840.5H743.53V841.5H745.528V840.5ZM741.531 840.5H739.532V841.5H741.531V840.5ZM737.534 840.5H735.535V841.5H737.534V840.5ZM733.536 840.5H731.537V841.5H733.536V840.5ZM729.539 840.5H727.54V841.5H729.539V840.5ZM725.541 840.5H723.543V841.5H725.541V840.5ZM721.544 840.5H719.545V841.5H721.544V840.5ZM717.546 840.5H715.548V841.5H717.546V840.5ZM713.549 840.5H711.55V841.5H713.549V840.5ZM709.552 840.5H707.553V841.5H709.552V840.5ZM705.554 840.5H703.555V841.5H705.554V840.5ZM701.557 840.5H699.558V841.5H701.557V840.5ZM697.559 840.5H695.561V841.5H697.559V840.5ZM693.562 840.5H691.563V841.5H693.562V840.5ZM689.564 840.5H687.566V841.5H689.564V840.5ZM685.567 840.5H683.568V841.5H685.567V840.5ZM681.57 840.5H679.571V841.5H681.57V840.5ZM677.572 840.5H675.573V841.5H677.572V840.5ZM673.575 840.5H671.576V841.5H673.575V840.5ZM669.577 840.5H667.579V841.5H669.577V840.5ZM665.58 840.5H663.581V841.5H665.58V840.5ZM661.582 840.5H659.584V841.5H661.582V840.5ZM657.585 840.5H655.586V841.5H657.585V840.5ZM653.587 840.5H651.589V841.5H653.587V840.5ZM649.59 840.5H647.591V841.5H649.59V840.5ZM645.593 840.5H643.594V841.5H645.593V840.5ZM641.595 840.5H639.596V841.5H641.595V840.5ZM637.598 840.5H635.599V841.5H637.598V840.5ZM633.6 840.5H631.602V841.5H633.6V840.5ZM629.603 840.5H627.604V841.5H629.603V840.5ZM625.605 840.5H623.607V841.5H625.605V840.5ZM621.608 840.5H619.609V841.5H621.608V840.5ZM617.611 840.5H615.612V841.5H617.611V840.5ZM613.613 840.5H611.614V841.5H613.613V840.5ZM609.616 840.5H607.617V841.5H609.616V840.5ZM605.618 840.5H603.619V841.5H605.618V840.5ZM601.621 840.5H599.622V841.5H601.621V840.5ZM597.623 840.5H595.625V841.5H597.623V840.5ZM593.626 840.5H591.627V841.5H593.626V840.5ZM589.628 840.5H587.63V841.5H589.628V840.5ZM585.631 840.5H583.632V841.5H585.631V840.5ZM581.634 840.5H579.635V841.5H581.634V840.5ZM577.636 840.5H575.637V841.5H577.636V840.5ZM573.639 840.5H571.64V841.5H573.639V840.5ZM569.641 840.5H567.643V841.5H569.641V840.5ZM565.644 840.5H563.645V841.5H565.644V840.5ZM561.646 840.5H559.648V841.5H561.646V840.5ZM557.649 840.5H555.65V841.5H557.649V840.5ZM553.652 840.5H551.653V841.5H553.652V840.5ZM549.654 840.5H547.655V841.5H549.654V840.5ZM545.657 840.5H543.658V841.5H545.657V840.5ZM541.659 840.5H539.66V841.5H541.659V840.5ZM537.661 840.5H535.663V841.5H537.661V840.5ZM533.664 840.5H531.665V841.5H533.664V840.5ZM529.666 840.5H527.668V841.5H529.666V840.5ZM525.669 840.5H523.67V841.5H525.669V840.5ZM521.671 840.5H519.672V841.5H521.671V840.5ZM517.674 840.5H515.675V841.5H517.674V840.5ZM513.676 840.5H511.677V841.5H513.676V840.5ZM509.679 840.5H507.68V841.5H509.679V840.5ZM505.681 840.5H503.682V841.5H505.681V840.5ZM501.683 840.5H499.685V841.5H501.683V840.5ZM497.686 840.5H495.687V841.5H497.686V840.5ZM493.688 840.5H491.69V841.5H493.688V840.5ZM489.691 840.5H487.692V841.5H489.691V840.5ZM485.693 840.5H483.694V841.5H485.693V840.5ZM481.696 840.5H479.697V841.5H481.696V840.5ZM477.698 840.5H475.699V841.5H477.698V840.5ZM473.701 840.5H471.702V841.5H473.701V840.5ZM469.703 840.5H467.704V841.5H469.703V840.5ZM465.705 840.5H463.707V841.5H465.705V840.5ZM461.708 840.5H459.709V841.5H461.708V840.5ZM457.71 840.5H455.712V841.5H457.71V840.5ZM453.713 840.5H451.714V841.5H453.713V840.5ZM449.715 840.5H447.716V841.5H449.715V840.5ZM445.718 840.5H443.719V841.5H445.718V840.5ZM441.72 840.5H439.721V841.5H441.72V840.5ZM437.723 840.5H435.724V841.5H437.723V840.5ZM433.725 840.5H431.726V841.5H433.725V840.5ZM429.727 840.5H427.729V841.5H429.727V840.5ZM425.73 840.5H423.731V841.5H425.73V840.5ZM421.732 840.5H419.733V841.5H421.732V840.5ZM417.735 840.5H415.736V841.5H417.735V840.5ZM413.737 840.5H411.738V841.5H413.737V840.5ZM409.74 840.5H407.741V841.5H409.74V840.5ZM405.742 840.5H403.743V841.5H405.742V840.5ZM401.745 840.5H399.746V841.5H401.745V840.5ZM397.747 840.5H395.748V841.5H397.747V840.5ZM393.749 840.5H391.751V841.5H393.749V840.5ZM389.752 840.5H387.753V841.5H389.752V840.5ZM385.754 840.5H383.755V841.5H385.754V840.5ZM381.757 840.5H379.758V841.5H381.757V840.5ZM377.759 840.5H375.76V841.5H377.759V840.5ZM373.762 840.5H371.763V841.5H373.762V840.5ZM369.764 840.5H367.765V841.5H369.764V840.5ZM365.766 840.5H363.768V841.5H365.766V840.5ZM361.769 840.5H359.77V841.5H361.769V840.5ZM357.771 840.5H355.773V841.5H357.771V840.5ZM353.774 840.5H351.775V841.5H353.774V840.5ZM349.776 840.5H347.777V841.5H349.776V840.5ZM345.779 840.5H343.78V841.5H345.779V840.5ZM341.781 840.5H339.782V841.5H341.781V840.5ZM337.784 840.5H335.785V841.5H337.784V840.5ZM333.786 840.5H331.787V841.5H333.786V840.5ZM329.788 840.5H327.79V841.5H329.788V840.5ZM325.791 840.5H323.792V841.5H325.791V840.5ZM321.793 840.5H319.795V841.5H321.793V840.5ZM317.796 840.5H315.797V841.5H317.796V840.5ZM313.798 840.5H311.799V841.5H313.798V840.5ZM309.801 840.5H307.802V841.5H309.801V840.5ZM305.803 840.5H303.804V841.5H305.803V840.5ZM301.805 840.5H299.807V841.5H301.805V840.5ZM297.808 840.5H295.809V841.5H297.808V840.5ZM293.81 840.5H291.812V841.5H293.81V840.5ZM289.813 840.5H287.814V841.5H289.813V840.5ZM285.815 840.5H283.817V841.5H285.815V840.5ZM281.818 840.5H279.819V841.5H281.818V840.5ZM277.82 840.5H275.821V841.5H277.82V840.5ZM273.823 840.5H271.824V841.5H273.823V840.5ZM269.825 840.5H267.826V841.5H269.825V840.5ZM265.827 840.5H263.829V841.5H265.827V840.5ZM261.83 840.5H259.831V841.5H261.83V840.5ZM257.832 840.5H255.834V841.5H257.832V840.5ZM253.835 840.5H251.836V841.5H253.835V840.5ZM249.837 840.5H247.838V841.5H249.837V840.5ZM245.84 840.5H243.841V841.5H245.84V840.5ZM241.842 840.5H239.843V841.5H241.842V840.5ZM237.845 840.5H235.846V841.5H237.845V840.5ZM233.847 840.5H231.848V841.5H233.847V840.5ZM229.85 840.5H227.851V841.5H229.85V840.5ZM225.852 840.5H223.853V841.5H225.852V840.5ZM221.854 840.5H219.856V841.5H221.854V840.5ZM217.857 840.5H215.858V841.5H217.857V840.5ZM213.859 840.5H211.86V841.5H213.859V840.5ZM209.862 840.5H207.863V841.5H209.862V840.5ZM205.864 840.5H203.865V841.5H205.864V840.5ZM201.867 840.5H199.868V841.5H201.867V840.5ZM197.869 840.5H195.87V841.5H197.869V840.5ZM193.872 840.5H191.873V841.5H193.872V840.5ZM189.874 840.5H187.875V841.5H189.874V840.5ZM185.876 840.5H183.878V841.5H185.876V840.5ZM181.879 840.5H179.88V841.5H181.879V840.5ZM177.881 840.5H175.882V841.5H177.881V840.5ZM173.884 840.5H171.885V841.5H173.884V840.5ZM169.886 840.5H167.887V841.5H169.886V840.5ZM165.889 840.5H163.89V841.5H165.889V840.5ZM161.891 840.5H159.892V841.5H161.891V840.5ZM157.893 840.5H155.895V841.5H157.893V840.5ZM153.896 840.5H151.897V841.5H153.896V840.5ZM149.898 840.5H147.9V841.5H149.898V840.5ZM145.901 840.5H143.902V841.5H145.901V840.5ZM141.903 840.5H139.904V841.5H141.903V840.5ZM137.906 840.5H135.907V841.5H137.906V840.5ZM133.908 840.5H131.909V841.5H133.908V840.5ZM129.911 840.5H127.912V841.5H129.911V840.5ZM125.913 840.5H123.914V841.5H125.913V840.5ZM121.915 840.5H119.917V841.5H121.915V840.5ZM117.918 840.5H115.919V841.5H117.918V840.5ZM113.92 840.5H111.922V841.5H113.92V840.5ZM109.923 840.5H107.924V841.5H109.923V840.5ZM105.925 840.5H103.926V841.5H105.925V840.5ZM101.928 840.5H99.9288V841.5H101.928V840.5ZM97.93 840.5H95.9313V841.5H97.93V840.5ZM93.9325 840.5H91.9337V841.5H93.9325V840.5ZM89.9349 840.5H87.9361V841.5H89.9349V840.5ZM85.9374 840.5H83.9386V841.5H85.9374V840.5ZM81.9398 840.5H79.9411V841.5H81.9398V840.5ZM77.9422 840.5H75.9435V841.5H77.9422V840.5ZM73.9447 840.5H71.9459V841.5H73.9447V840.5ZM69.9472 840.5H67.9483V841.5H69.9472V840.5ZM65.9496 840.5H63.9508V841.5H65.9496V840.5ZM61.952 840.5H59.9533V841.5H61.952V840.5ZM57.9545 840.5H55.9557V841.5H57.9545V840.5ZM53.9569 840.5H51.9581V841.5H53.9569V840.5ZM49.9594 840.5H47.9606V841.5H49.9594V840.5ZM45.9617 840.5H43.963V841.5H45.9617V840.5ZM41.9642 840.5H39.9655V841.5H41.9642V840.5ZM37.9667 840.5H35.9679V841.5H37.9667V840.5ZM33.9691 840.5H31.9703V841.5H33.9691V840.5ZM29.9716 840.5H27.9728V841.5H29.9716V840.5ZM25.974 840.5H23.9752V841.5H25.974V840.5ZM21.9764 840.5H19.9777V841.5H21.9764V840.5ZM17.9789 840.5H15.9801V841.5H17.9789V840.5ZM13.9813 840.5H11.9825V841.5H13.9813V840.5ZM9.98381 840.5H7.98499V841.5H9.98381V840.5ZM5.98618 840.5H3.98746V841.5H5.98618V840.5ZM1.98864 840.5H1V841.5H1.98864V840.5ZM1.5 841V840.003H0.5V841H1.5ZM1.5 838.008V836.013H0.5V838.008H1.5ZM1.5 834.018V832.023H0.5V834.018H1.5ZM1.5 830.028V828.033H0.5V830.028H1.5ZM1.5 826.038V824.043H0.5V826.038H1.5ZM1.5 822.048V820.053H0.5V822.048H1.5ZM1.5 818.058V816.063H0.5V818.058H1.5ZM1.5 814.068V812.073H0.5V814.068H1.5ZM1.5 810.078V808.083H0.5V810.078H1.5ZM1.5 806.088V804.093H0.5V806.088H1.5ZM1.5 802.098V800.104H0.5V802.098H1.5ZM1.5 798.109V796.114H0.5V798.109H1.5ZM1.5 794.119V792.124H0.5V794.119H1.5ZM1.5 790.129V788.134H0.5V790.129H1.5ZM1.5 786.139V784.144H0.5V786.139H1.5ZM1.5 782.149V780.154H0.5V782.149H1.5ZM1.5 778.159V776.164H0.5V778.159H1.5ZM1.5 774.169V772.174H0.5V774.169H1.5ZM1.5 770.179V768.184H0.5V770.179H1.5ZM1.5 766.189V764.194H0.5V766.189H1.5ZM1.5 762.199V760.205H0.5V762.199H1.5ZM1.5 758.21V756.215H0.5V758.21H1.5ZM1.5 754.22V752.225H0.5V754.22H1.5ZM1.5 750.23V748.235H0.5V750.23H1.5ZM1.5 746.24V744.245H0.5V746.24H1.5ZM1.5 742.25V740.255H0.5V742.25H1.5ZM1.5 738.26V736.265H0.5V738.26H1.5ZM1.5 734.27V732.275H0.5V734.27H1.5ZM1.5 730.28V728.285H0.5V730.28H1.5ZM1.5 726.29V724.295H0.5V726.29H1.5ZM1.5 722.301V720.306H0.5V722.301H1.5ZM1.5 718.311V716.316H0.5V718.311H1.5ZM1.5 714.321V712.326H0.5V714.321H1.5ZM1.5 710.331V708.336H0.5V710.331H1.5ZM1.5 706.341V704.346H0.5V706.341H1.5ZM1.5 702.351V700.356H0.5V702.351H1.5ZM1.5 698.361V696.366H0.5V698.361H1.5ZM1.5 694.371V692.376H0.5V694.371H1.5ZM1.5 690.381V688.386H0.5V690.381H1.5ZM1.5 686.391V684.396H0.5V686.391H1.5ZM1.5 682.402V680.407H0.5V682.402H1.5ZM1.5 678.412V676.417H0.5V678.412H1.5ZM1.5 674.422V672.427H0.5V674.422H1.5ZM1.5 670.432V668.437H0.5V670.432H1.5ZM1.5 666.442V664.447H0.5V666.442H1.5ZM1.5 662.452V660.457H0.5V662.452H1.5ZM1.5 658.462V656.467H0.5V658.462H1.5ZM1.5 654.472V652.477H0.5V654.472H1.5ZM1.5 650.482V648.487H0.5V650.482H1.5ZM1.5 646.492V644.497H0.5V646.492H1.5ZM1.5 642.503V640.508H0.5V642.503H1.5ZM1.5 638.513V636.518H0.5V638.513H1.5ZM1.5 634.523V632.528H0.5V634.523H1.5ZM1.5 630.533V628.538H0.5V630.533H1.5ZM1.5 626.543V624.548H0.5V626.543H1.5ZM1.5 622.553V620.558H0.5V622.553H1.5ZM1.5 618.563V616.568H0.5V618.563H1.5ZM1.5 614.573V612.578H0.5V614.573H1.5ZM1.5 610.583V608.588H0.5V610.583H1.5ZM1.5 606.593V604.599H0.5V606.593H1.5ZM1.5 602.604V600.609H0.5V602.604H1.5ZM1.5 598.614V596.619H0.5V598.614H1.5ZM1.5 594.624V592.629H0.5V594.624H1.5ZM1.5 590.634V588.639H0.5V590.634H1.5ZM1.5 586.644V584.649H0.5V586.644H1.5ZM1.5 582.654V580.659H0.5V582.654H1.5ZM1.5 578.664V576.669H0.5V578.664H1.5ZM1.5 574.674V572.679H0.5V574.674H1.5ZM1.5 570.684V568.689H0.5V570.684H1.5ZM1.5 566.694V564.699H0.5V566.694H1.5ZM1.5 562.704V560.709H0.5V562.704H1.5ZM1.5 558.714V556.719H0.5V558.714H1.5ZM1.5 554.725V552.73H0.5V554.725H1.5ZM1.5 550.735V548.74H0.5V550.735H1.5ZM1.5 546.745V544.75H0.5V546.745H1.5ZM1.5 542.755V540.76H0.5V542.755H1.5ZM1.5 538.765V536.77H0.5V538.765H1.5ZM1.5 534.775V532.78H0.5V534.775H1.5ZM1.5 530.785V528.79H0.5V530.785H1.5ZM1.5 526.795V524.8H0.5V526.795H1.5ZM1.5 522.805V520.81H0.5V522.805H1.5ZM1.5 518.815V516.82H0.5V518.815H1.5ZM1.5 514.825V512.83H0.5V514.825H1.5ZM1.5 510.835V508.84H0.5V510.835H1.5ZM1.5 506.845V504.85H0.5V506.845H1.5ZM1.5 502.855V500.86H0.5V502.855H1.5ZM1.5 498.866V496.871H0.5V498.866H1.5ZM1.5 494.876V492.881H0.5V494.876H1.5ZM1.5 490.886V488.891H0.5V490.886H1.5ZM1.5 486.896V484.901H0.5V486.896H1.5ZM1.5 482.906V480.911H0.5V482.906H1.5ZM1.5 478.916V476.921H0.5V478.916H1.5ZM1.5 474.926V472.931H0.5V474.926H1.5ZM1.5 470.936V468.941H0.5V470.936H1.5ZM1.5 466.946V464.951H0.5V466.946H1.5ZM1.5 462.956V460.961H0.5V462.956H1.5ZM1.5 458.966V456.971H0.5V458.966H1.5ZM1.5 454.976V452.981H0.5V454.976H1.5ZM1.5 450.986V448.991H0.5V450.986H1.5ZM1.5 446.996V445.001H0.5V446.996H1.5ZM1.5 443.006V441.012H0.5V443.006H1.5ZM1.5 439.017V437.022H0.5V439.017H1.5ZM1.5 435.027V433.032H0.5V435.027H1.5ZM1.5 431.037V429.042H0.5V431.037H1.5ZM1.5 427.047V425.052H0.5V427.047H1.5ZM1.5 423.057V421.062H0.5V423.057H1.5ZM1.5 419.067V417.072H0.5V419.067H1.5ZM1.5 415.077V413.082H0.5V415.077H1.5ZM1.5 411.087V409.092H0.5V411.087H1.5ZM1.5 407.097V405.102H0.5V407.097H1.5ZM1.5 403.107V401.112H0.5V403.107H1.5ZM1.5 399.117V397.122H0.5V399.117H1.5ZM1.5 395.127V393.132H0.5V395.127H1.5ZM1.5 391.137V389.142H0.5V391.137H1.5ZM1.5 387.147V385.153H0.5V387.147H1.5ZM1.5 383.158V381.163H0.5V383.158H1.5ZM1.5 379.168V377.173H0.5V379.168H1.5ZM1.5 375.178V373.183H0.5V375.178H1.5ZM1.5 371.188V369.193H0.5V371.188H1.5ZM1.5 367.198V365.203H0.5V367.198H1.5ZM1.5 363.208V361.213H0.5V363.208H1.5ZM1.5 359.218V357.223H0.5V359.218H1.5ZM1.5 355.228V353.233H0.5V355.228H1.5ZM1.5 351.238V349.243H0.5V351.238H1.5ZM1.5 347.248V345.253H0.5V347.248H1.5ZM1.5 343.258V341.263H0.5V343.258H1.5ZM1.5 339.268V337.273H0.5V339.268H1.5ZM1.5 335.278V333.283H0.5V335.278H1.5ZM1.5 331.289V329.294H0.5V331.289H1.5ZM1.5 327.299V325.304H0.5V327.299H1.5ZM1.5 323.309V321.314H0.5V323.309H1.5ZM1.5 319.319V317.324H0.5V319.319H1.5ZM1.5 315.329V313.334H0.5V315.329H1.5ZM1.5 311.339V309.344H0.5V311.339H1.5ZM1.5 307.349V305.354H0.5V307.349H1.5ZM1.5 303.359V301.364H0.5V303.359H1.5ZM1.5 299.37V297.375H0.5V299.37H1.5ZM1.5 295.38V293.385H0.5V295.38H1.5ZM1.5 291.39V289.395H0.5V291.39H1.5ZM1.5 287.4V285.405H0.5V287.4H1.5ZM1.5 283.41V281.415H0.5V283.41H1.5ZM1.5 279.42V277.425H0.5V279.42H1.5ZM1.5 275.43V273.435H0.5V275.43H1.5ZM1.5 271.44V269.445H0.5V271.44H1.5ZM1.5 267.451V265.456H0.5V267.451H1.5ZM1.5 263.461V261.466H0.5V263.461H1.5ZM1.5 259.471V257.476H0.5V259.471H1.5ZM1.5 255.481V253.486H0.5V255.481H1.5ZM1.5 251.491V249.496H0.5V251.491H1.5ZM1.5 247.501V245.506H0.5V247.501H1.5ZM1.5 243.511V241.516H0.5V243.511H1.5ZM1.5 239.521V237.527H0.5V239.521H1.5ZM1.5 235.532V233.537H0.5V235.532H1.5ZM1.5 231.542V229.547H0.5V231.542H1.5ZM1.5 227.552V225.557H0.5V227.552H1.5ZM1.5 223.562V221.567H0.5V223.562H1.5ZM1.5 219.572V217.577H0.5V219.572H1.5ZM1.5 215.582V213.587H0.5V215.582H1.5ZM1.5 211.592V209.597H0.5V211.592H1.5ZM1.5 207.603V205.608H0.5V207.603H1.5ZM1.5 203.613V201.618H0.5V203.613H1.5ZM1.5 199.623V197.628H0.5V199.623H1.5ZM1.5 195.633V193.638H0.5V195.633H1.5ZM1.5 191.643V189.648H0.5V191.643H1.5ZM1.5 187.653V185.658H0.5V187.653H1.5ZM1.5 183.663V181.668H0.5V183.663H1.5ZM1.5 179.673V177.679H0.5V179.673H1.5ZM1.5 175.684V173.689H0.5V175.684H1.5ZM1.5 171.694V169.699H0.5V171.694H1.5ZM1.5 167.704V165.709H0.5V167.704H1.5ZM1.5 163.714V161.719H0.5V163.714H1.5ZM1.5 159.724V157.729H0.5V159.724H1.5ZM1.5 155.734V153.739H0.5V155.734H1.5ZM1.5 151.744V149.749H0.5V151.744H1.5ZM1.5 147.755V145.76H0.5V147.755H1.5ZM1.5 143.765V141.77H0.5V143.765H1.5ZM1.5 139.775V137.78H0.5V139.775H1.5ZM1.5 135.785V133.79H0.5V135.785H1.5ZM1.5 131.795V129.8H0.5V131.795H1.5ZM1.5 127.805V125.81H0.5V127.805H1.5ZM1.5 123.815V121.82H0.5V123.815H1.5ZM1.5 119.825V117.831H0.5V119.825H1.5ZM1.5 115.836V113.841H0.5V115.836H1.5ZM1.5 111.846V109.851H0.5V111.846H1.5ZM1.5 107.856V105.861H0.5V107.856H1.5ZM1.5 103.866V101.871H0.5V103.866H1.5ZM1.5 99.8761V97.8812H0.5V99.8761H1.5ZM1.5 95.8862V93.8913H0.5V95.8862H1.5ZM1.5 91.8964V89.9014H0.5V91.8964H1.5ZM1.5 87.9065V85.9116H0.5V87.9065H1.5ZM1.5 83.9166V81.9217H0.5V83.9166H1.5ZM1.5 79.9268V77.9318H0.5V79.9268H1.5ZM1.5 75.9369V73.942H0.5V75.9369H1.5ZM1.5 71.9471V69.9521H0.5V71.9471H1.5ZM1.5 67.9572V65.9622H0.5V67.9572H1.5ZM1.5 63.9673V61.9724H0.5V63.9673H1.5ZM1.5 59.9774V57.9825H0.5V59.9774H1.5ZM1.5 55.9875V53.9926H0.5V55.9875H1.5ZM1.5 51.9977V51H0.5V51.9977H1.5ZM1.5 51C1.5 50.6741 1.50315 50.3489 1.50942 50.0244L0.509607 50.0051C0.503212 50.336 0.5 50.6676 0.5 51H1.5ZM1.58449 48.0834C1.62221 47.434 1.67245 46.788 1.73497 46.1457L0.739667 46.0488C0.675895 46.7041 0.624649 47.363 0.586171 48.0254L1.58449 48.0834ZM1.96132 44.2134C2.04964 43.5692 2.15035 42.929 2.26321 42.293L1.27859 42.1182C1.16345 42.7672 1.06069 43.4204 0.970591 44.0776L1.96132 44.2134ZM2.64036 40.3868C2.77894 39.7524 2.92969 39.1225 3.09235 38.4975L2.12458 38.2456C1.95861 38.8834 1.8048 39.5261 1.6634 40.1733L2.64036 40.3868ZM3.61918 36.6258C3.80754 36.0041 4.0078 35.3876 4.21969 34.7765L3.27488 34.4489C3.05867 35.0724 2.85433 35.7015 2.66214 36.3359L3.61918 36.6258ZM4.89271 32.953C5.12941 32.3487 5.37765 31.7502 5.63716 31.1578L4.72118 30.7566C4.4564 31.361 4.20312 31.9717 3.9616 32.5883L4.89271 32.953ZM6.45184 29.3935C6.73545 28.8099 7.0302 28.2326 7.33581 27.6621L6.45429 27.1899C6.14249 27.772 5.84177 28.361 5.5524 28.9565L6.45184 29.3935ZM8.28733 25.9666C8.61584 25.4073 8.95503 24.855 9.30461 24.31L8.46289 23.7701C8.10626 24.3261 7.76022 24.8895 7.42507 25.4601L8.28733 25.9666ZM10.386 22.6948C10.7572 22.1632 11.1386 21.6392 11.5298 21.1231L10.7329 20.519C10.3338 21.0454 9.94477 21.58 9.5661 22.1223L10.386 22.6948ZM12.7343 19.5973C13.1459 19.0964 13.5671 18.6037 13.9976 18.1195L13.2504 17.455C12.8112 17.9489 12.3815 18.4515 11.9617 18.9624L12.7343 19.5973ZM15.3176 16.6922C15.7668 16.2251 16.2251 15.7668 16.6922 15.3176L15.9991 14.5968C15.5226 15.0551 15.0551 15.5226 14.5968 15.9991L15.3176 16.6922ZM18.1195 13.9977C18.6037 13.5671 19.0963 13.1459 19.5973 12.7343L18.9624 11.9617C18.4515 12.3815 17.9489 12.8112 17.455 13.2504L18.1195 13.9977ZM21.1231 11.5298C21.6392 11.1386 22.1632 10.7572 22.6948 10.386L22.1223 9.56611C21.58 9.94478 21.0454 10.3338 20.519 10.7329L21.1231 11.5298ZM24.31 9.30461C24.855 8.95503 25.4073 8.61584 25.9666 8.28733L25.4601 7.42507C24.8895 7.76023 24.3261 8.10626 23.7701 8.4629L24.31 9.30461ZM27.662 7.33581C28.2326 7.0302 28.8099 6.73545 29.3935 6.45184L28.9565 5.5524C28.361 5.84177 27.772 6.1425 27.1899 6.4543L27.662 7.33581ZM31.1578 5.63716C31.7502 5.37765 32.3487 5.12942 32.953 4.89271L32.5882 3.9616C31.9717 4.20312 31.361 4.45641 30.7566 4.72119L31.1578 5.63716ZM34.7765 4.21969C35.3876 4.0078 36.0041 3.80754 36.6258 3.61918L36.3359 2.66214C35.7015 2.85434 35.0724 3.05867 34.4489 3.27488L34.7765 4.21969ZM38.4975 3.09235C39.1225 2.92969 39.7524 2.77894 40.3867 2.64036L40.1733 1.6634C39.526 1.8048 38.8834 1.95861 38.2456 2.12458L38.4975 3.09235ZM42.2929 2.26321C42.929 2.15036 43.5692 2.04964 44.2134 1.96132L44.0776 0.970592C43.4204 1.0607 42.7672 1.16345 42.1182 1.27859L42.2929 2.26321ZM46.1457 1.73497C46.788 1.67245 47.434 1.62221 48.0833 1.58449L48.0253 0.586171C47.363 0.62465 46.7041 0.675896 46.0488 0.739669L46.1457 1.73497ZM50.0244 1.50942C50.3488 1.50315 50.674 1.5 51 1.5V0.5C50.6676 0.5 50.3359 0.503212 50.0051 0.509607L50.0244 1.50942ZM51 1.5H51.9993V0.5H51V1.5ZM53.998 1.5H55.9966V0.5H53.998V1.5ZM57.9952 1.5H59.9939V0.5H57.9952V1.5ZM61.9925 1.5H63.9912V0.5H61.9925V1.5ZM65.9898 1.5H67.9884V0.5H65.9898V1.5ZM69.9871 1.5H71.9857V0.5H69.9871V1.5ZM73.9844 1.5H75.983V0.5H73.9844V1.5ZM77.9817 1.5H79.9803V0.5H77.9817V1.5ZM81.9789 1.5H83.9776V0.5H81.9789V1.5ZM85.9762 1.5H87.9749V0.5H85.9762V1.5ZM89.9735 1.5H91.9722V0.5H89.9735V1.5ZM93.9708 1.5H95.9694V0.5H93.9708V1.5ZM97.9681 1.5H99.9667V0.5H97.9681V1.5ZM101.965 1.5H103.964V0.5H101.965V1.5ZM105.963 1.5H107.961V0.5H105.963V1.5ZM109.96 1.5H111.959V0.5H109.96V1.5ZM113.957 1.5H115.956V0.5H113.957V1.5ZM117.955 1.5H119.953V0.5H117.955V1.5ZM121.952 1.5H123.95V0.5H121.952V1.5ZM125.949 1.5H127.948V0.5H125.949V1.5ZM129.946 1.5H131.945V0.5H129.946V1.5ZM133.944 1.5H135.942V0.5H133.944V1.5ZM137.941 1.5H139.94V0.5H137.941V1.5ZM141.938 1.5H143.937V0.5H141.938V1.5ZM145.935 1.5H147.934V0.5H145.935V1.5ZM149.933 1.5H151.931V0.5H149.933V1.5ZM153.93 1.5H155.929V0.5H153.93V1.5ZM157.927 1.5H159.926V0.5H157.927V1.5ZM161.925 1.5H163.923V0.5H161.925V1.5ZM165.922 1.5H167.921V0.5H165.922V1.5ZM169.919 1.5H171.918V0.5H169.919V1.5ZM173.916 1.5H175.915V0.5H173.916V1.5ZM177.914 1.5H179.912V0.5H177.914V1.5ZM181.911 1.5H183.91V0.5H181.911V1.5ZM185.908 1.5H187.907V0.5H185.908V1.5ZM189.906 1.5H191.904V0.5H189.906V1.5ZM193.903 1.5H195.902V0.5H193.903V1.5ZM197.9 1.5H199.899V0.5H197.9V1.5ZM201.897 1.5H203.896V0.5H201.897V1.5ZM205.895 1.5H207.893V0.5H205.895V1.5ZM209.892 1.5H211.891V0.5H209.892V1.5ZM213.889 1.5H215.888V0.5H213.889V1.5ZM217.887 1.5H219.885V0.5H217.887V1.5ZM221.884 1.5H223.883V0.5H221.884V1.5ZM225.881 1.5H227.88V0.5H225.881V1.5ZM229.878 1.5H231.877V0.5H229.878V1.5ZM233.876 1.5H235.874V0.5H233.876V1.5ZM237.873 1.5H239.872V0.5H237.873V1.5ZM241.87 1.5H243.869V0.5H241.87V1.5ZM245.868 1.5H247.866V0.5H245.868V1.5ZM249.865 1.5H251.864V0.5H249.865V1.5ZM253.862 1.5H255.861V0.5H253.862V1.5ZM257.859 1.5H259.858V0.5H257.859V1.5ZM261.857 1.5H263.855V0.5H261.857V1.5ZM265.854 1.5H267.853V0.5H265.854V1.5ZM269.851 1.5H271.85V0.5H269.851V1.5ZM273.849 1.5H275.847V0.5H273.849V1.5ZM277.846 1.5H279.845V0.5H277.846V1.5ZM281.843 1.5H283.842V0.5H281.843V1.5ZM285.84 1.5H287.839V0.5H285.84V1.5ZM289.838 1.5H291.836V0.5H289.838V1.5ZM293.835 1.5H295.834V0.5H293.835V1.5ZM297.832 1.5H299.831V0.5H297.832V1.5ZM301.83 1.5H303.828V0.5H301.83V1.5ZM305.827 1.5H307.825V0.5H305.827V1.5ZM309.824 1.5H311.823V0.5H309.824V1.5ZM313.821 1.5H315.82V0.5H313.821V1.5ZM317.819 1.5H319.817V0.5H317.819V1.5ZM321.816 1.5H323.814V0.5H321.816V1.5ZM325.813 1.5H327.812V0.5H325.813V1.5ZM329.81 1.5H331.809V0.5H329.81V1.5ZM333.808 1.5H335.806V0.5H333.808V1.5ZM337.805 1.5H339.804V0.5H337.805V1.5ZM341.802 1.5H343.801V0.5H341.802V1.5ZM345.799 1.5H347.798V0.5H345.799V1.5ZM349.797 1.5H351.795V0.5H349.797V1.5ZM353.794 1.5H355.793V0.5H353.794V1.5ZM357.791 1.5H359.79V0.5H357.791V1.5ZM361.788 1.5H363.787V0.5H361.788V1.5ZM365.786 1.5H367.784V0.5H365.786V1.5ZM369.783 1.5H371.782V0.5H369.783V1.5ZM373.78 1.5H375.779V0.5H373.78V1.5ZM377.777 1.5H379.776V0.5H377.777V1.5ZM381.775 1.5H383.773V0.5H381.775V1.5ZM385.772 1.5H387.771V0.5H385.772V1.5ZM389.769 1.5H391.768V0.5H389.769V1.5ZM393.766 1.5H395.765V0.5H393.766V1.5ZM397.764 1.5H399.762V0.5H397.764V1.5ZM401.761 1.5H403.76V0.5H401.761V1.5ZM405.758 1.5H407.757V0.5H405.758V1.5ZM409.755 1.5H411.754V0.5H409.755V1.5ZM413.753 1.5H415.751V0.5H413.753V1.5ZM417.75 1.5H419.749V0.5H417.75V1.5ZM421.747 1.5H423.746V0.5H421.747V1.5ZM425.744 1.5H427.743V0.5H425.744V1.5ZM429.742 1.5H431.74V0.5H429.742V1.5ZM433.739 1.5H435.738V0.5H433.739V1.5ZM437.736 1.5H439.735V0.5H437.736V1.5ZM441.733 1.5H443.732V0.5H441.733V1.5ZM445.731 1.5H447.729V0.5H445.731V1.5ZM449.728 1.5H451.727V0.5H449.728V1.5ZM453.725 1.5H455.724V0.5H453.725V1.5ZM457.722 1.5H459.721V0.5H457.722V1.5ZM461.72 1.5H463.718V0.5H461.72V1.5ZM465.717 1.5H467.716V0.5H465.717V1.5ZM469.714 1.5H471.713V0.5H469.714V1.5ZM473.711 1.5H475.71V0.5H473.711V1.5ZM477.709 1.5H479.707V0.5H477.709V1.5ZM481.706 1.5H483.705V0.5H481.706V1.5ZM485.703 1.5H487.702V0.5H485.703V1.5ZM489.7 1.5H491.699V0.5H489.7V1.5ZM493.698 1.5H495.696V0.5H493.698V1.5ZM497.695 1.5H499.694V0.5H497.695V1.5ZM501.692 1.5H503.691V0.5H501.692V1.5ZM505.69 1.5H507.688V0.5H505.69V1.5ZM509.687 1.5H511.685V0.5H509.687V1.5ZM513.684 1.5H515.683V0.5H513.684V1.5ZM517.681 1.5H519.68V0.5H517.681V1.5ZM521.679 1.5H523.677V0.5H521.679V1.5ZM525.676 1.5H527.674V0.5H525.676V1.5ZM529.673 1.5H531.672V0.5H529.673V1.5ZM533.67 1.5H535.669V0.5H533.67V1.5ZM537.668 1.5H539.666V0.5H537.668V1.5ZM541.665 1.5H543.663V0.5H541.665V1.5ZM545.662 1.5H547.661V0.5H545.662V1.5ZM549.659 1.5H551.658V0.5H549.659V1.5ZM553.657 1.5H555.655V0.5H553.657V1.5ZM557.654 1.5H559.652V0.5H557.654V1.5ZM561.651 1.5H563.65V0.5H561.651V1.5ZM565.648 1.5H567.647V0.5H565.648V1.5ZM569.646 1.5H571.644V0.5H569.646V1.5ZM573.643 1.5H575.642V0.5H573.643V1.5ZM577.64 1.5H579.639V0.5H577.64V1.5ZM581.638 1.5H583.636V0.5H581.638V1.5ZM585.635 1.5H587.634V0.5H585.635V1.5ZM589.632 1.5H591.631V0.5H589.632V1.5ZM593.63 1.5H595.628V0.5H593.63V1.5ZM597.627 1.5H599.626V0.5H597.627V1.5ZM601.624 1.5H603.623V0.5H601.624V1.5ZM605.622 1.5H607.62V0.5H605.622V1.5ZM609.619 1.5H611.617V0.5H609.619V1.5ZM613.616 1.5H615.615V0.5H613.616V1.5ZM617.613 1.5H619.612V0.5H617.613V1.5ZM621.611 1.5H623.609V0.5H621.611V1.5ZM625.608 1.5H627.607V0.5H625.608V1.5ZM629.605 1.5H631.604V0.5H629.605V1.5ZM633.603 1.5H635.601V0.5H633.603V1.5ZM637.6 1.5H639.599V0.5H637.6V1.5ZM641.597 1.5H643.596V0.5H641.597V1.5ZM645.595 1.5H647.593V0.5H645.595V1.5ZM649.592 1.5H651.591V0.5H649.592V1.5ZM653.589 1.5H655.588V0.5H653.589V1.5ZM657.587 1.5H659.585V0.5H657.587V1.5ZM661.584 1.5H663.583V0.5H661.584V1.5ZM665.581 1.5H667.58V0.5H665.581V1.5ZM669.579 1.5H671.577V0.5H669.579V1.5ZM673.576 1.5H675.575V0.5H673.576V1.5ZM677.573 1.5H679.572V0.5H677.573V1.5ZM681.57 1.5H683.569V0.5H681.57V1.5ZM685.568 1.5H687.566V0.5H685.568V1.5ZM689.565 1.5H691.564V0.5H689.565V1.5ZM693.562 1.5H695.561V0.5H693.562V1.5ZM697.56 1.5H699.558V0.5H697.56V1.5ZM701.557 1.5H703.556V0.5H701.557V1.5ZM705.554 1.5H707.553V0.5H705.554V1.5ZM709.552 1.5H711.55V0.5H709.552V1.5ZM713.549 1.5H715.548V0.5H713.549V1.5ZM717.546 1.5H719.545V0.5H717.546V1.5ZM721.544 1.5H723.542V0.5H721.544V1.5ZM725.541 1.5H727.54V0.5H725.541V1.5ZM729.538 1.5H731.537V0.5H729.538V1.5ZM733.536 1.5H735.534V0.5H733.536V1.5ZM737.533 1.5H739.532V0.5H737.533V1.5ZM741.53 1.5H743.529V0.5H741.53V1.5ZM745.528 1.5H747.526V0.5H745.528V1.5ZM749.525 1.5H751.524V0.5H749.525V1.5ZM753.522 1.5H755.521V0.5H753.522V1.5ZM757.519 1.5H759.518V0.5H757.519V1.5ZM761.517 1.5H763.515V0.5H761.517V1.5ZM765.514 1.5H767.513V0.5H765.514V1.5ZM769.511 1.5H771.51V0.5H769.511V1.5ZM773.509 1.5H775.507V0.5H773.509V1.5ZM777.506 1.5H779.505V0.5H777.506V1.5ZM781.503 1.5H783.502V0.5H781.503V1.5ZM785.501 1.5H787.499V0.5H785.501V1.5ZM789.498 1.5H791.497V0.5H789.498V1.5ZM793.495 1.5H795.494V0.5H793.495V1.5ZM797.493 1.5H799.491V0.5H797.493V1.5ZM801.49 1.5H803.489V0.5H801.49V1.5ZM805.487 1.5H807.486V0.5H805.487V1.5ZM809.485 1.5H811.483V0.5H809.485V1.5ZM813.482 1.5H815.481V0.5H813.482V1.5ZM817.479 1.5H819.478V0.5H817.479V1.5ZM821.477 1.5H823.475V0.5H821.477V1.5ZM825.474 1.5H827.472V0.5H825.474V1.5ZM829.471 1.5H831.47V0.5H829.471V1.5ZM833.468 1.5H835.467V0.5H833.468V1.5ZM837.466 1.5H839.464V0.5H837.466V1.5ZM841.463 1.5H843.462V0.5H841.463V1.5ZM845.46 1.5H847.459V0.5H845.46V1.5ZM849.458 1.5H851.456V0.5H849.458V1.5ZM853.455 1.5H855.454V0.5H853.455V1.5ZM857.452 1.5H859.451V0.5H857.452V1.5ZM861.45 1.5H863.448V0.5H861.45V1.5ZM865.447 1.5H867.446V0.5H865.447V1.5ZM869.444 1.5H871.443V0.5H869.444V1.5ZM873.442 1.5H875.44V0.5H873.442V1.5ZM877.439 1.5H879.438V0.5H877.439V1.5ZM881.436 1.5H883.435V0.5H881.436V1.5ZM885.434 1.5H887.432V0.5H885.434V1.5ZM889.431 1.5H891.43V0.5H889.431V1.5ZM893.428 1.5H895.427V0.5H893.428V1.5ZM897.425 1.5H899.424V0.5H897.425V1.5ZM901.423 1.5H903.421V0.5H901.423V1.5ZM905.42 1.5H907.419V0.5H905.42V1.5ZM909.417 1.5H911.416V0.5H909.417V1.5ZM913.415 1.5H915.413V0.5H913.415V1.5ZM917.412 1.5H919.411V0.5H917.412V1.5ZM921.409 1.5H923.408V0.5H921.409V1.5ZM925.407 1.5H927.405V0.5H925.407V1.5ZM929.404 1.5H931.403V0.5H929.404V1.5ZM933.401 1.5H935.4V0.5H933.401V1.5ZM937.399 1.5H939.397V0.5H937.399V1.5ZM941.396 1.5H943.395V0.5H941.396V1.5ZM945.393 1.5H947.392V0.5H945.393V1.5ZM949.391 1.5H951.389V0.5H949.391V1.5ZM953.388 1.5H955.387V0.5H953.388V1.5ZM957.385 1.5H959.384V0.5H957.385V1.5ZM961.383 1.5H963.381V0.5H961.383V1.5ZM965.38 1.5H967.379V0.5H965.38V1.5ZM969.377 1.5H971.376V0.5H969.377V1.5ZM973.374 1.5H975.373V0.5H973.374V1.5ZM977.372 1.5H979.37V0.5H977.372V1.5ZM981.369 1.5H983.368V0.5H981.369V1.5ZM985.366 1.5H987.365V0.5H985.366V1.5ZM989.364 1.5H991.362V0.5H989.364V1.5ZM993.361 1.5H995.36V0.5H993.361V1.5ZM997.358 1.5H999.357V0.5H997.358V1.5ZM1001.36 1.5H1003.35V0.5H1001.36V1.5ZM1005.35 1.5H1007.35V0.5H1005.35V1.5ZM1009.35 1.5H1011.35V0.5H1009.35V1.5ZM1013.35 1.5H1015.35V0.5H1013.35V1.5ZM1017.34 1.5H1019.34V0.5H1017.34V1.5ZM1021.34 1.5H1023.34V0.5H1021.34V1.5ZM1025.34 1.5H1027.34V0.5H1025.34V1.5ZM1029.34 1.5H1031.34V0.5H1029.34V1.5ZM1033.33 1.5H1035.33V0.5H1033.33V1.5ZM1037.33 1.5H1039.33V0.5H1037.33V1.5ZM1041.33 1.5H1043.33V0.5H1041.33V1.5ZM1045.33 1.5H1047.32V0.5H1045.33V1.5ZM1049.32 1.5H1051.32V0.5H1049.32V1.5ZM1053.32 1.5H1055.32V0.5H1053.32V1.5ZM1057.32 1.5H1059.32V0.5H1057.32V1.5ZM1061.32 1.5H1063.31V0.5H1061.32V1.5ZM1065.31 1.5H1067.31V0.5H1065.31V1.5ZM1069.31 1.5H1071.31V0.5H1069.31V1.5ZM1073.31 1.5H1075.31V0.5H1073.31V1.5ZM1077.3 1.5H1079.3V0.5H1077.3V1.5ZM1081.3 1.5H1083.3V0.5H1081.3V1.5ZM1085.3 1.5H1087.3V0.5H1085.3V1.5ZM1089.3 1.5H1091.3V0.5H1089.3V1.5ZM1093.29 1.5H1095.29V0.5H1093.29V1.5ZM1097.29 1.5H1099.29V0.5H1097.29V1.5ZM1101.29 1.5H1103.29V0.5H1101.29V1.5ZM1105.29 1.5H1107.28V0.5H1105.29V1.5ZM1109.28 1.5H1111.28V0.5H1109.28V1.5ZM1113.28 1.5H1115.28V0.5H1113.28V1.5ZM1117.28 1.5H1119.28V0.5H1117.28V1.5ZM1121.28 1.5H1123.27V0.5H1121.28V1.5ZM1125.27 1.5H1127.27V0.5H1125.27V1.5ZM1129.27 1.5H1131.27V0.5H1129.27V1.5ZM1133.27 1.5H1135.27V0.5H1133.27V1.5ZM1137.26 1.5H1139.26V0.5H1137.26V1.5ZM1141.26 1.5H1143.26V0.5H1141.26V1.5ZM1145.26 1.5H1147.26V0.5H1145.26V1.5ZM1149.26 1.5H1151.25V0.5H1149.26V1.5ZM1153.25 1.5H1155.25V0.5H1153.25V1.5ZM1157.25 1.5H1159.25V0.5H1157.25V1.5ZM1161.25 1.5H1163.25V0.5H1161.25V1.5ZM1165.25 1.5H1167.24V0.5H1165.25V1.5ZM1169.24 1.5H1171.24V0.5H1169.24V1.5ZM1173.24 1.5H1175.24V0.5H1173.24V1.5ZM1177.24 1.5H1179.24V0.5H1177.24V1.5ZM1181.23 1.5H1183.23V0.5H1181.23V1.5ZM1185.23 1.5H1187.23V0.5H1185.23V1.5ZM1189.23 1.5H1191.23V0.5H1189.23V1.5ZM1193.23 1.5H1195.23V0.5H1193.23V1.5ZM1197.22 1.5H1199.22V0.5H1197.22V1.5ZM1201.22 1.5H1203.22V0.5H1201.22V1.5ZM1205.22 1.5H1207.22V0.5H1205.22V1.5ZM1209.22 1.5H1211.21V0.5H1209.22V1.5ZM1213.21 1.5H1215.21V0.5H1213.21V1.5ZM1217.21 1.5H1219.21V0.5H1217.21V1.5ZM1221.21 1.5H1223.21V0.5H1221.21V1.5ZM1225.21 1.5H1227.2V0.5H1225.21V1.5ZM1229.2 1.5H1231.2V0.5H1229.2V1.5ZM1233.2 1.5H1235.2V0.5H1233.2V1.5ZM1237.2 1.5H1239.2V0.5H1237.2V1.5ZM1241.19 1.5H1243.19V0.5H1241.19V1.5ZM1245.19 1.5H1247.19V0.5H1245.19V1.5ZM1249.19 1.5H1251.19V0.5H1249.19V1.5ZM1253.19 1.5H1255.19V0.5H1253.19V1.5ZM1257.18 1.5H1259.18V0.5H1257.18V1.5ZM1261.18 1.5H1263.18V0.5H1261.18V1.5ZM1265.18 1.5H1267.18V0.5H1265.18V1.5ZM1269.18 1.5H1271.17V0.5H1269.18V1.5ZM1273.17 1.5H1275.17V0.5H1273.17V1.5ZM1277.17 1.5H1279.17V0.5H1277.17V1.5ZM1281.17 1.5H1283.17V0.5H1281.17V1.5ZM1285.16 1.5H1287.16V0.5H1285.16V1.5ZM1289.16 1.5H1291.16V0.5H1289.16V1.5ZM1293.16 1.5H1295.16V0.5H1293.16V1.5ZM1297.16 1.5H1299.16V0.5H1297.16V1.5ZM1301.15 1.5H1303.15V0.5H1301.15V1.5ZM1305.15 1.5H1307.15V0.5H1305.15V1.5ZM1309.15 1.5H1311.15V0.5H1309.15V1.5ZM1313.15 1.5H1315.14V0.5H1313.15V1.5ZM1317.14 1.5H1319.14V0.5H1317.14V1.5ZM1321.14 1.5H1323.14V0.5H1321.14V1.5ZM1325.14 1.5H1327.14V0.5H1325.14V1.5ZM1329.14 1.5H1331.13V0.5H1329.14V1.5ZM1333.13 1.5H1335.13V0.5H1333.13V1.5ZM1337.13 1.5H1339.13V0.5H1337.13V1.5ZM1341.13 1.5H1343.13V0.5H1341.13V1.5ZM1345.12 1.5H1347.12V0.5H1345.12V1.5ZM1349.12 1.5H1351.12V0.5H1349.12V1.5ZM1353.12 1.5H1355.12V0.5H1353.12V1.5ZM1357.12 1.5H1359.12V0.5H1357.12V1.5ZM1361.11 1.5H1363.11V0.5H1361.11V1.5ZM1365.11 1.5H1367.11V0.5H1365.11V1.5ZM1369.11 1.5H1371.11V0.5H1369.11V1.5ZM1373.11 1.5H1375.1V0.5H1373.11V1.5ZM1377.1 1.5H1379.1V0.5H1377.1V1.5ZM1381.1 1.5H1383.1V0.5H1381.1V1.5ZM1385.1 1.5H1387.1V0.5H1385.1V1.5ZM1389.1 1.5H1391.09V0.5H1389.1V1.5ZM1393.09 1.5H1395.09V0.5H1393.09V1.5ZM1397.09 1.5H1399.09V0.5H1397.09V1.5ZM1401.09 1.5H1403.09V0.5H1401.09V1.5ZM1405.08 1.5H1407.08V0.5H1405.08V1.5ZM1409.08 1.5H1411.08V0.5H1409.08V1.5ZM1413.08 1.5H1415.08V0.5H1413.08V1.5ZM1417.08 1.5H1419.08V0.5H1417.08V1.5ZM1421.07 1.5H1423.07V0.5H1421.07V1.5ZM1425.07 1.5H1427.07V0.5H1425.07V1.5ZM1429.07 1.5H1431.07V0.5H1429.07V1.5ZM1433.07 1.5H1435.06V0.5H1433.07V1.5ZM1437.06 1.5H1439.06V0.5H1437.06V1.5ZM1441.06 1.5H1443.06V0.5H1441.06V1.5ZM1445.06 1.5H1447.06V0.5H1445.06V1.5ZM1449.05 1.5H1451.05V0.5H1449.05V1.5ZM1453.05 1.5H1455.05V0.5H1453.05V1.5ZM1457.05 1.5H1459.05V0.5H1457.05V1.5ZM1461.05 1.5H1463.05V0.5H1461.05V1.5ZM1465.04 1.5H1467.04V0.5H1465.04V1.5ZM1469.04 1.5H1471.04V0.5H1469.04V1.5ZM1473.04 1.5H1475.04V0.5H1473.04V1.5ZM1477.04 1.5H1479.03V0.5H1477.04V1.5ZM1481.03 1.5H1483.03V0.5H1481.03V1.5ZM1485.03 1.5H1487.03V0.5H1485.03V1.5ZM1489.03 1.5H1491.03V0.5H1489.03V1.5ZM1493.03 1.5H1495.02V0.5H1493.03V1.5ZM1497.02 1.5H1499.02V0.5H1497.02V1.5ZM1501.02 1.5H1503.02V0.5H1501.02V1.5ZM1505.02 1.5H1507.02V0.5H1505.02V1.5ZM1509.01 1.5H1511.01V0.5H1509.01V1.5ZM1513.01 1.5H1515.01V0.5H1513.01V1.5ZM1517.01 1.5H1519.01V0.5H1517.01V1.5ZM1521.01 1.5H1522V0.5H1521.01V1.5ZM1522 1.5C1522.33 1.5 1522.65 1.50315 1522.98 1.50942L1522.99 0.509607C1522.66 0.503212 1522.33 0.5 1522 0.5V1.5ZM1524.92 1.58449C1525.57 1.62221 1526.21 1.67245 1526.85 1.73497L1526.95 0.739667C1526.3 0.675895 1525.64 0.624649 1524.97 0.586171L1524.92 1.58449ZM1528.79 1.96132C1529.43 2.04964 1530.07 2.15035 1530.71 2.26321L1530.88 1.27859C1530.23 1.16345 1529.58 1.06069 1528.92 0.970591L1528.79 1.96132ZM1532.61 2.64036C1533.25 2.77894 1533.88 2.92969 1534.5 3.09235L1534.75 2.12458C1534.12 1.95861 1533.47 1.8048 1532.83 1.6634L1532.61 2.64036ZM1536.37 3.61918C1537 3.80754 1537.61 4.0078 1538.22 4.21969L1538.55 3.27488C1537.93 3.05867 1537.3 2.85433 1536.66 2.66214L1536.37 3.61918ZM1540.05 4.89271C1540.65 5.12941 1541.25 5.37765 1541.84 5.63716L1542.24 4.72118C1541.64 4.4564 1541.03 4.20312 1540.41 3.9616L1540.05 4.89271ZM1543.61 6.45184C1544.19 6.73545 1544.77 7.0302 1545.34 7.33581L1545.81 6.45429C1545.23 6.14249 1544.64 5.84177 1544.04 5.5524L1543.61 6.45184ZM1547.03 8.28733C1547.59 8.61584 1548.14 8.95503 1548.69 9.30461L1549.23 8.46289C1548.67 8.10626 1548.11 7.76022 1547.54 7.42507L1547.03 8.28733ZM1550.31 10.386C1550.84 10.7572 1551.36 11.1386 1551.88 11.5298L1552.48 10.7329C1551.95 10.3338 1551.42 9.94477 1550.88 9.5661L1550.31 10.386ZM1553.4 12.7343C1553.9 13.1459 1554.4 13.5671 1554.88 13.9976L1555.55 13.2504C1555.05 12.8112 1554.55 12.3815 1554.04 11.9617L1553.4 12.7343ZM1556.31 15.3176C1556.77 15.7668 1557.23 16.2251 1557.68 16.6922L1558.4 15.9991C1557.94 15.5226 1557.48 15.0551 1557 14.5968L1556.31 15.3176ZM1559 18.1195C1559.43 18.6037 1559.85 19.0964 1560.27 19.5973L1561.04 18.9624C1560.62 18.4515 1560.19 17.9489 1559.75 17.455L1559 18.1195ZM1561.47 21.1231C1561.86 21.6392 1562.24 22.1632 1562.61 22.6948L1563.43 22.1223C1563.06 21.58 1562.67 21.0454 1562.27 20.519L1561.47 21.1231ZM1563.7 24.31C1564.04 24.855 1564.38 25.4073 1564.71 25.9666L1565.57 25.4601C1565.24 24.8895 1564.89 24.3261 1564.54 23.7701L1563.7 24.31ZM1565.66 27.6621C1565.97 28.2326 1566.26 28.8099 1566.55 29.3935L1567.45 28.9565C1567.16 28.361 1566.86 27.772 1566.55 27.1899L1565.66 27.6621ZM1567.36 31.1578C1567.62 31.7502 1567.87 32.3487 1568.11 32.953L1569.04 32.5883C1568.8 31.9717 1568.54 31.361 1568.28 30.7566L1567.36 31.1578ZM1568.78 34.7765C1568.99 35.3876 1569.19 36.0041 1569.38 36.6258L1570.34 36.3359C1570.15 35.7015 1569.94 35.0724 1569.73 34.4489L1568.78 34.7765ZM1569.91 38.4975C1570.07 39.1225 1570.22 39.7524 1570.36 40.3868L1571.34 40.1733C1571.2 39.526 1571.04 38.8834 1570.88 38.2456L1569.91 38.4975ZM1570.74 42.2929C1570.85 42.929 1570.95 43.5692 1571.04 44.2134L1572.03 44.0776C1571.94 43.4204 1571.84 42.7672 1571.72 42.1182L1570.74 42.2929ZM1571.27 46.1457C1571.33 46.788 1571.38 47.434 1571.42 48.0833L1572.41 48.0253C1572.38 47.363 1572.32 46.7041 1572.26 46.0488L1571.27 46.1457ZM1571.49 50.0244C1571.5 50.3488 1571.5 50.674 1571.5 51H1572.5C1572.5 50.6676 1572.5 50.3359 1572.49 50.0051L1571.49 50.0244ZM1571.5 51V51.9975H1572.5V51H1571.5ZM1571.5 53.9924V55.9874H1572.5V53.9924H1571.5ZM1571.5 57.9823V59.9773H1572.5V57.9823H1571.5ZM1571.5 61.9722V63.9672H1572.5V61.9722H1571.5ZM1571.5 65.9621V67.9571H1572.5V65.9621H1571.5ZM1571.5 69.952V71.947H1572.5V69.952H1571.5ZM1571.5 73.9419V75.9369H1572.5V73.9419H1571.5ZM1571.5 77.9318V79.9268H1572.5V77.9318H1571.5ZM1571.5 81.9217V83.9167H1572.5V81.9217H1571.5ZM1571.5 85.9116V87.9066H1572.5V85.9116H1571.5ZM1571.5 89.9015V91.8965H1572.5V89.9015H1571.5ZM1571.5 93.8914V95.8864H1572.5V93.8914H1571.5ZM1571.5 97.8813V99.8763H1572.5V97.8813H1571.5ZM1571.5 101.871V103.866H1572.5V101.871H1571.5ZM1571.5 105.861V107.856H1572.5V105.861H1571.5ZM1571.5 109.851V111.846H1572.5V109.851H1571.5ZM1571.5 113.841V115.836H1572.5V113.841H1571.5ZM1571.5 117.831V119.826H1572.5V117.831H1571.5ZM1571.5 121.821V123.816H1572.5V121.821H1571.5ZM1571.5 125.811V127.806H1572.5V125.811H1571.5ZM1571.5 129.801V131.795H1572.5V129.801H1571.5ZM1571.5 133.79V135.785H1572.5V133.79H1571.5ZM1571.5 137.78V139.775H1572.5V137.78H1571.5ZM1571.5 141.77V143.765H1572.5V141.77H1571.5ZM1571.5 145.76V147.755H1572.5V145.76H1571.5ZM1571.5 149.75V151.745H1572.5V149.75H1571.5ZM1571.5 153.74V155.735H1572.5V153.74H1571.5ZM1571.5 157.73V159.725H1572.5V157.73H1571.5ZM1571.5 161.72V163.715H1572.5V161.72H1571.5ZM1571.5 165.71V167.705H1572.5V165.71H1571.5ZM1571.5 169.699V171.694H1572.5V169.699H1571.5ZM1571.5 173.689V175.684H1572.5V173.689H1571.5ZM1571.5 177.679V179.674H1572.5V177.679H1571.5ZM1571.5 181.669V183.664H1572.5V181.669H1571.5ZM1571.5 185.659V187.654H1572.5V185.659H1571.5ZM1571.5 189.649V191.644H1572.5V189.649H1571.5ZM1571.5 193.639V195.634H1572.5V193.639H1571.5ZM1571.5 197.629V199.624H1572.5V197.629H1571.5ZM1571.5 201.619V203.614H1572.5V201.619H1571.5ZM1571.5 205.609V207.604H1572.5V205.609H1571.5ZM1571.5 209.598V211.593H1572.5V209.598H1571.5ZM1571.5 213.588V215.583H1572.5V213.588H1571.5ZM1571.5 217.578V219.573H1572.5V217.578H1571.5ZM1571.5 221.568V223.563H1572.5V221.568H1571.5ZM1571.5 225.558V227.553H1572.5V225.558H1571.5ZM1571.5 229.548V231.543H1572.5V229.548H1571.5ZM1571.5 233.538V235.533H1572.5V233.538H1571.5ZM1571.5 237.528V239.523H1572.5V237.528H1571.5ZM1571.5 241.518V243.513H1572.5V241.518H1571.5ZM1571.5 245.508V247.503H1572.5V245.508H1571.5ZM1571.5 249.497V251.492H1572.5V249.497H1571.5ZM1571.5 253.487V255.482H1572.5V253.487H1571.5ZM1571.5 257.477V259.472H1572.5V257.477H1571.5ZM1571.5 261.467V263.462H1572.5V261.467H1571.5ZM1571.5 265.457V267.452H1572.5V265.457H1571.5ZM1571.5 269.447V271.442H1572.5V269.447H1571.5ZM1571.5 273.437V275.432H1572.5V273.437H1571.5ZM1571.5 277.427V279.422H1572.5V277.427H1571.5ZM1571.5 281.417V283.412H1572.5V281.417H1571.5ZM1571.5 285.407V287.402H1572.5V285.407H1571.5ZM1571.5 289.396V291.391H1572.5V289.396H1571.5ZM1571.5 293.386V295.381H1572.5V293.386H1571.5ZM1571.5 297.376V299.371H1572.5V297.376H1571.5ZM1571.5 301.366V303.361H1572.5V301.366H1571.5ZM1571.5 305.356V307.351H1572.5V305.356H1571.5ZM1571.5 309.346V311.341H1572.5V309.346H1571.5ZM1571.5 313.336V315.331H1572.5V313.336H1571.5ZM1571.5 317.326V319.321H1572.5V317.326H1571.5ZM1571.5 321.316V323.311H1572.5V321.316H1571.5ZM1571.5 325.306V327.301H1572.5V325.306H1571.5ZM1571.5 329.296V331.291H1572.5V329.296H1571.5ZM1571.5 333.286V335.281H1572.5V333.286H1571.5ZM1571.5 337.275V339.27H1572.5V337.275H1571.5ZM1571.5 341.265V343.26H1572.5V341.265H1571.5ZM1571.5 345.255V347.25H1572.5V345.255H1571.5ZM1571.5 349.245V351.24H1572.5V349.245H1571.5ZM1571.5 353.235V355.23H1572.5V353.235H1571.5ZM1571.5 357.225V359.22H1572.5V357.225H1571.5ZM1571.5 361.215V363.21H1572.5V361.215H1571.5ZM1571.5 365.205V367.2H1572.5V365.205H1571.5ZM1571.5 369.195V371.19H1572.5V369.195H1571.5ZM1571.5 373.185V375.18H1572.5V373.185H1571.5ZM1571.5 377.175V379.17H1572.5V377.175H1571.5ZM1571.5 381.165V383.16H1572.5V381.165H1571.5ZM1571.5 385.155V387.15H1572.5V385.155H1571.5ZM1571.5 389.145V391.14H1572.5V389.145H1571.5ZM1571.5 393.134V395.129H1572.5V393.134H1571.5ZM1571.5 397.124V399.119H1572.5V397.124H1571.5ZM1571.5 401.114V403.109H1572.5V401.114H1571.5ZM1571.5 405.104V407.099H1572.5V405.104H1571.5ZM1571.5 409.094V411.089H1572.5V409.094H1571.5ZM1571.5 413.084V415.079H1572.5V413.084H1571.5ZM1571.5 417.074V419.069H1572.5V417.074H1571.5ZM1571.5 421.064V423.059H1572.5V421.064H1571.5ZM1571.5 425.054V427.049H1572.5V425.054H1571.5ZM1571.5 429.044V431.039H1572.5V429.044H1571.5ZM1571.5 433.034V435.029H1572.5V433.034H1571.5ZM1571.5 437.024V439.019H1572.5V437.024H1571.5ZM1571.5 441.014V443.009H1572.5V441.014H1571.5ZM1571.5 445.004V446.999H1572.5V445.004H1571.5ZM1571.5 448.994V450.988H1572.5V448.994H1571.5ZM1571.5 452.983V454.978H1572.5V452.983H1571.5ZM1571.5 456.973V458.968H1572.5V456.973H1571.5ZM1571.5 460.963V462.958H1572.5V460.963H1571.5ZM1571.5 464.953V466.948H1572.5V464.953H1571.5ZM1571.5 468.943V470.938H1572.5V468.943H1571.5ZM1571.5 472.933V474.928H1572.5V472.933H1571.5ZM1571.5 476.923V478.918H1572.5V476.923H1571.5ZM1571.5 480.913V482.908H1572.5V480.913H1571.5ZM1571.5 484.903V486.898H1572.5V484.903H1571.5ZM1571.5 488.893V490.888H1572.5V488.893H1571.5ZM1571.5 492.883V494.878H1572.5V492.883H1571.5ZM1571.5 496.873V498.868H1572.5V496.873H1571.5ZM1571.5 500.863V502.858H1572.5V500.863H1571.5ZM1571.5 504.853V506.847H1572.5V504.853H1571.5ZM1571.5 508.842V510.837H1572.5V508.842H1571.5ZM1571.5 512.832V514.827H1572.5V512.832H1571.5ZM1571.5 516.822V518.817H1572.5V516.822H1571.5ZM1571.5 520.812V522.807H1572.5V520.812H1571.5ZM1571.5 524.802V526.797H1572.5V524.802H1571.5ZM1571.5 528.792V530.787H1572.5V528.792H1571.5ZM1571.5 532.782V534.777H1572.5V532.782H1571.5ZM1571.5 536.772V538.767H1572.5V536.772H1571.5ZM1571.5 540.762V542.757H1572.5V540.762H1571.5ZM1571.5 544.752V546.747H1572.5V544.752H1571.5ZM1571.5 548.742V550.737H1572.5V548.742H1571.5ZM1571.5 552.732V554.727H1572.5V552.732H1571.5ZM1571.5 556.722V558.717H1572.5V556.722H1571.5ZM1571.5 560.711V562.706H1572.5V560.711H1571.5ZM1571.5 564.701V566.696H1572.5V564.701H1571.5ZM1571.5 568.691V570.686H1572.5V568.691H1571.5ZM1571.5 572.681V574.676H1572.5V572.681H1571.5ZM1571.5 576.671V578.666H1572.5V576.671H1571.5ZM1571.5 580.661V582.656H1572.5V580.661H1571.5ZM1571.5 584.651V586.646H1572.5V584.651H1571.5ZM1571.5 588.641V590.636H1572.5V588.641H1571.5ZM1571.5 592.63V594.625H1572.5V592.63H1571.5ZM1571.5 596.62V598.615H1572.5V596.62H1571.5ZM1571.5 600.61V602.605H1572.5V600.61H1571.5ZM1571.5 604.6V606.595H1572.5V604.6H1571.5ZM1571.5 608.59V610.585H1572.5V608.59H1571.5ZM1571.5 612.58V614.575H1572.5V612.58H1571.5ZM1571.5 616.57V618.565H1572.5V616.57H1571.5ZM1571.5 620.56V622.555H1572.5V620.56H1571.5ZM1571.5 624.549V626.544H1572.5V624.549H1571.5ZM1571.5 628.539V630.534H1572.5V628.539H1571.5ZM1571.5 632.529V634.524H1572.5V632.529H1571.5ZM1571.5 636.519V638.514H1572.5V636.519H1571.5ZM1571.5 640.509V642.504H1572.5V640.509H1571.5ZM1571.5 644.499V646.494H1572.5V644.499H1571.5ZM1571.5 648.489V650.484H1572.5V648.489H1571.5ZM1571.5 652.479V654.473H1572.5V652.479H1571.5ZM1571.5 656.468V658.463H1572.5V656.468H1571.5ZM1571.5 660.458V662.453H1572.5V660.458H1571.5ZM1571.5 664.448V666.443H1572.5V664.448H1571.5ZM1571.5 668.438V670.433H1572.5V668.438H1571.5ZM1571.5 672.428V674.423H1572.5V672.428H1571.5ZM1571.5 676.418V678.413H1572.5V676.418H1571.5ZM1571.5 680.408V682.403H1572.5V680.408H1571.5ZM1571.5 684.397V686.392H1572.5V684.397H1571.5ZM1571.5 688.387V690.382H1572.5V688.387H1571.5ZM1571.5 692.377V694.372H1572.5V692.377H1571.5ZM1571.5 696.367V698.362H1572.5V696.367H1571.5ZM1571.5 700.357V702.352H1572.5V700.357H1571.5ZM1571.5 704.347V706.342H1572.5V704.347H1571.5ZM1571.5 708.337V710.332H1572.5V708.337H1571.5ZM1571.5 712.327V714.321H1572.5V712.327H1571.5ZM1571.5 716.316V718.311H1572.5V716.316H1571.5ZM1571.5 720.306V722.301H1572.5V720.306H1571.5ZM1571.5 724.296V726.291H1572.5V724.296H1571.5ZM1571.5 728.286V730.281H1572.5V728.286H1571.5ZM1571.5 732.276V734.271H1572.5V732.276H1571.5ZM1571.5 736.266V738.261H1572.5V736.266H1571.5ZM1571.5 740.256V742.251H1572.5V740.256H1571.5ZM1571.5 744.245V746.24H1572.5V744.245H1571.5ZM1571.5 748.235V750.23H1572.5V748.235H1571.5ZM1571.5 752.225V754.22H1572.5V752.225H1571.5ZM1571.5 756.215V758.21H1572.5V756.215H1571.5ZM1571.5 760.205V762.2H1572.5V760.205H1571.5ZM1571.5 764.195V766.19H1572.5V764.195H1571.5ZM1571.5 768.185V770.18H1572.5V768.185H1571.5ZM1571.5 772.175V774.17H1572.5V772.175H1571.5ZM1571.5 776.164V778.159H1572.5V776.164H1571.5ZM1571.5 780.154V782.149H1572.5V780.154H1571.5ZM1571.5 784.144V786.139H1572.5V784.144H1571.5ZM1571.5 788.134V790.129H1572.5V788.134H1571.5ZM1571.5 792.124V794.119H1572.5V792.124H1571.5ZM1571.5 796.114V798.109H1572.5V796.114H1571.5ZM1571.5 800.104V802.099H1572.5V800.104H1571.5ZM1571.5 804.093V806.088H1572.5V804.093H1571.5ZM1571.5 808.083V810.078H1572.5V808.083H1571.5ZM1571.5 812.073V814.068H1572.5V812.073H1571.5ZM1571.5 816.063V818.058H1572.5V816.063H1571.5ZM1571.5 820.053V822.048H1572.5V820.053H1571.5ZM1571.5 824.043V826.038H1572.5V824.043H1571.5ZM1571.5 828.033V830.028H1572.5V828.033H1571.5ZM1571.5 832.023V834.018H1572.5V832.023H1571.5ZM1571.5 836.012V838.007H1572.5V836.012H1571.5ZM1571.5 840.002V841H1572.5V840.002H1571.5ZM1572 841V842H1573V841H1572ZM1 841H0V842H1V841ZM1572 840H1571V842H1572V840ZM1569 840H1567V842H1569V840ZM1565 840H1563.01V842H1565V840ZM1561.01 840H1559.01V842H1561.01V840ZM1557.01 840H1555.01V842H1557.01V840ZM1553.01 840H1551.01V842H1553.01V840ZM1549.01 840H1547.02V842H1549.01V840ZM1545.02 840H1543.02V842H1545.02V840ZM1541.02 840H1539.02V842H1541.02V840ZM1537.02 840H1535.02V842H1537.02V840ZM1533.02 840H1531.03V842H1533.02V840ZM1529.03 840H1527.03V842H1529.03V840ZM1525.03 840H1523.03V842H1525.03V840ZM1521.03 840H1519.03V842H1521.03V840ZM1517.04 840H1515.04V842H1517.04V840ZM1513.04 840H1511.04V842H1513.04V840ZM1509.04 840H1507.04V842H1509.04V840ZM1505.04 840H1503.04V842H1505.04V840ZM1501.05 840H1499.05V842H1501.05V840ZM1497.05 840H1495.05V842H1497.05V840ZM1493.05 840H1491.05V842H1493.05V840ZM1489.05 840H1487.05V842H1489.05V840ZM1485.06 840H1483.06V842H1485.06V840ZM1481.06 840H1479.06V842H1481.06V840ZM1477.06 840H1475.06V842H1477.06V840ZM1473.06 840H1471.06V842H1473.06V840ZM1469.07 840H1467.07V842H1469.07V840ZM1465.07 840H1463.07V842H1465.07V840ZM1461.07 840H1459.07V842H1461.07V840ZM1457.07 840H1455.07V842H1457.07V840ZM1453.08 840H1451.08V842H1453.08V840ZM1449.08 840H1447.08V842H1449.08V840ZM1445.08 840H1443.08V842H1445.08V840ZM1441.08 840H1439.08V842H1441.08V840ZM1437.09 840H1435.09V842H1437.09V840ZM1433.09 840H1431.09V842H1433.09V840ZM1429.09 840H1427.09V842H1429.09V840ZM1425.09 840H1423.09V842H1425.09V840ZM1421.1 840H1419.1V842H1421.1V840ZM1417.1 840H1415.1V842H1417.1V840ZM1413.1 840H1411.1V842H1413.1V840ZM1409.1 840H1407.1V842H1409.1V840ZM1405.11 840H1403.11V842H1405.11V840ZM1401.11 840H1399.11V842H1401.11V840ZM1397.11 840H1395.11V842H1397.11V840ZM1393.11 840H1391.12V842H1393.11V840ZM1389.12 840H1387.12V842H1389.12V840ZM1385.12 840H1383.12V842H1385.12V840ZM1381.12 840H1379.12V842H1381.12V840ZM1377.12 840H1375.13V842H1377.12V840ZM1373.13 840H1371.13V842H1373.13V840ZM1369.13 840H1367.13V842H1369.13V840ZM1365.13 840H1363.13V842H1365.13V840ZM1361.13 840H1359.14V842H1361.13V840ZM1357.14 840H1355.14V842H1357.14V840ZM1353.14 840H1351.14V842H1353.14V840ZM1349.14 840H1347.14V842H1349.14V840ZM1345.14 840H1343.15V842H1345.14V840ZM1341.15 840H1339.15V842H1341.15V840ZM1337.15 840H1335.15V842H1337.15V840ZM1333.15 840H1331.15V842H1333.15V840ZM1329.15 840H1327.16V842H1329.15V840ZM1325.16 840H1323.16V842H1325.16V840ZM1321.16 840H1319.16V842H1321.16V840ZM1317.16 840H1315.16V842H1317.16V840ZM1313.16 840H1311.17V842H1313.16V840ZM1309.17 840H1307.17V842H1309.17V840ZM1305.17 840H1303.17V842H1305.17V840ZM1301.17 840H1299.17V842H1301.17V840ZM1297.17 840H1295.18V842H1297.17V840ZM1293.18 840H1291.18V842H1293.18V840ZM1289.18 840H1287.18V842H1289.18V840ZM1285.18 840H1283.18V842H1285.18V840ZM1281.18 840H1279.19V842H1281.18V840ZM1277.19 840H1275.19V842H1277.19V840ZM1273.19 840H1271.19V842H1273.19V840ZM1269.19 840H1267.19V842H1269.19V840ZM1265.2 840H1263.2V842H1265.2V840ZM1261.2 840H1259.2V842H1261.2V840ZM1257.2 840H1255.2V842H1257.2V840ZM1253.2 840H1251.2V842H1253.2V840ZM1249.21 840H1247.21V842H1249.21V840ZM1245.21 840H1243.21V842H1245.21V840ZM1241.21 840H1239.21V842H1241.21V840ZM1237.21 840H1235.21V842H1237.21V840ZM1233.22 840H1231.22V842H1233.22V840ZM1229.22 840H1227.22V842H1229.22V840ZM1225.22 840H1223.22V842H1225.22V840ZM1221.22 840H1219.22V842H1221.22V840ZM1217.23 840H1215.23V842H1217.23V840ZM1213.23 840H1211.23V842H1213.23V840ZM1209.23 840H1207.23V842H1209.23V840ZM1205.23 840H1203.23V842H1205.23V840ZM1201.24 840H1199.24V842H1201.24V840ZM1197.24 840H1195.24V842H1197.24V840ZM1193.24 840H1191.24V842H1193.24V840ZM1189.24 840H1187.25V842H1189.24V840ZM1185.25 840H1183.25V842H1185.25V840ZM1181.25 840H1179.25V842H1181.25V840ZM1177.25 840H1175.25V842H1177.25V840ZM1173.25 840H1171.26V842H1173.25V840ZM1169.26 840H1167.26V842H1169.26V840ZM1165.26 840H1163.26V842H1165.26V840ZM1161.26 840H1159.26V842H1161.26V840ZM1157.26 840H1155.27V842H1157.26V840ZM1153.27 840H1151.27V842H1153.27V840ZM1149.27 840H1147.27V842H1149.27V840ZM1145.27 840H1143.27V842H1145.27V840ZM1141.27 840H1139.28V842H1141.27V840ZM1137.28 840H1135.28V842H1137.28V840ZM1133.28 840H1131.28V842H1133.28V840ZM1129.28 840H1127.28V842H1129.28V840ZM1125.28 840H1123.29V842H1125.28V840ZM1121.29 840H1119.29V842H1121.29V840ZM1117.29 840H1115.29V842H1117.29V840ZM1113.29 840H1111.29V842H1113.29V840ZM1109.3 840H1107.3V842H1109.3V840ZM1105.3 840H1103.3V842H1105.3V840ZM1101.3 840H1099.3V842H1101.3V840ZM1097.3 840H1095.3V842H1097.3V840ZM1093.31 840H1091.31V842H1093.31V840ZM1089.31 840H1087.31V842H1089.31V840ZM1085.31 840H1083.31V842H1085.31V840ZM1081.31 840H1079.31V842H1081.31V840ZM1077.32 840H1075.32V842H1077.32V840ZM1073.32 840H1071.32V842H1073.32V840ZM1069.32 840H1067.32V842H1069.32V840ZM1065.32 840H1063.32V842H1065.32V840ZM1061.33 840H1059.33V842H1061.33V840ZM1057.33 840H1055.33V842H1057.33V840ZM1053.33 840H1051.33V842H1053.33V840ZM1049.33 840H1047.33V842H1049.33V840ZM1045.34 840H1043.34V842H1045.34V840ZM1041.34 840H1039.34V842H1041.34V840ZM1037.34 840H1035.34V842H1037.34V840ZM1033.34 840H1031.35V842H1033.34V840ZM1029.35 840H1027.35V842H1029.35V840ZM1025.35 840H1023.35V842H1025.35V840ZM1021.35 840H1019.35V842H1021.35V840ZM1017.35 840H1015.36V842H1017.35V840ZM1013.36 840H1011.36V842H1013.36V840ZM1009.36 840H1007.36V842H1009.36V840ZM1005.36 840H1003.36V842H1005.36V840ZM1001.36 840H999.366V842H1001.36V840ZM997.367 840H995.368V842H997.367V840ZM993.37 840H991.371V842H993.37V840ZM989.372 840H987.373V842H989.372V840ZM985.375 840H983.376V842H985.375V840ZM981.377 840H979.379V842H981.377V840ZM977.38 840H975.381V842H977.38V840ZM973.382 840H971.384V842H973.382V840ZM969.385 840H967.386V842H969.385V840ZM965.388 840H963.389V842H965.388V840ZM961.39 840H959.391V842H961.39V840ZM957.393 840H955.394V842H957.393V840ZM953.395 840H951.397V842H953.395V840ZM949.398 840H947.399V842H949.398V840ZM945.4 840H943.402V842H945.4V840ZM941.403 840H939.404V842H941.403V840ZM937.405 840H935.407V842H937.405V840ZM933.408 840H931.409V842H933.408V840ZM929.411 840H927.412V842H929.411V840ZM925.413 840H923.414V842H925.413V840ZM921.416 840H919.417V842H921.416V840ZM917.418 840H915.42V842H917.418V840ZM913.421 840H911.422V842H913.421V840ZM909.423 840H907.425V842H909.423V840ZM905.426 840H903.427V842H905.426V840ZM901.429 840H899.43V842H901.429V840ZM897.431 840H895.432V842H897.431V840ZM893.434 840H891.435V842H893.434V840ZM889.436 840H887.437V842H889.436V840ZM885.439 840H883.44V842H885.439V840ZM881.441 840H879.443V842H881.441V840ZM877.444 840H875.445V842H877.444V840ZM873.446 840H871.448V842H873.446V840ZM869.449 840H867.45V842H869.449V840ZM865.452 840H863.453V842H865.452V840ZM861.454 840H859.455V842H861.454V840ZM857.457 840H855.458V842H857.457V840ZM853.459 840H851.461V842H853.459V840ZM849.462 840H847.463V842H849.462V840ZM845.464 840H843.466V842H845.464V840ZM841.467 840H839.468V842H841.467V840ZM837.47 840H835.471V842H837.47V840ZM833.472 840H831.473V842H833.472V840ZM829.475 840H827.476V842H829.475V840ZM825.477 840H823.479V842H825.477V840ZM821.48 840H819.481V842H821.48V840ZM817.482 840H815.484V842H817.482V840ZM813.485 840H811.486V842H813.485V840ZM809.488 840H807.489V842H809.488V840ZM805.49 840H803.491V842H805.49V840ZM801.493 840H799.494V842H801.493V840ZM797.495 840H795.496V842H797.495V840ZM793.498 840H791.499V842H793.498V840ZM789.5 840H787.502V842H789.5V840ZM785.503 840H783.504V842H785.503V840ZM781.505 840H779.507V842H781.505V840ZM777.508 840H775.509V842H777.508V840ZM773.511 840H771.512V842H773.511V840ZM769.513 840H767.514V842H769.513V840ZM765.516 840H763.517V842H765.516V840ZM761.518 840H759.52V842H761.518V840ZM757.521 840H755.522V842H757.521V840ZM753.523 840H751.525V842H753.523V840ZM749.526 840H747.527V842H749.526V840ZM745.528 840H743.53V842H745.528V840ZM741.531 840H739.532V842H741.531V840ZM737.534 840H735.535V842H737.534V840ZM733.536 840H731.537V842H733.536V840ZM729.539 840H727.54V842H729.539V840ZM725.541 840H723.543V842H725.541V840ZM721.544 840H719.545V842H721.544V840ZM717.546 840H715.548V842H717.546V840ZM713.549 840H711.55V842H713.549V840ZM709.552 840H707.553V842H709.552V840ZM705.554 840H703.555V842H705.554V840ZM701.557 840H699.558V842H701.557V840ZM697.559 840H695.561V842H697.559V840ZM693.562 840H691.563V842H693.562V840ZM689.564 840H687.566V842H689.564V840ZM685.567 840H683.568V842H685.567V840ZM681.57 840H679.571V842H681.57V840ZM677.572 840H675.573V842H677.572V840ZM673.575 840H671.576V842H673.575V840ZM669.577 840H667.579V842H669.577V840ZM665.58 840H663.581V842H665.58V840ZM661.582 840H659.584V842H661.582V840ZM657.585 840H655.586V842H657.585V840ZM653.587 840H651.589V842H653.587V840ZM649.59 840H647.591V842H649.59V840ZM645.593 840H643.594V842H645.593V840ZM641.595 840H639.596V842H641.595V840ZM637.598 840H635.599V842H637.598V840ZM633.6 840H631.602V842H633.6V840ZM629.603 840H627.604V842H629.603V840ZM625.605 840H623.607V842H625.605V840ZM621.608 840H619.609V842H621.608V840ZM617.611 840H615.612V842H617.611V840ZM613.613 840H611.614V842H613.613V840ZM609.616 840H607.617V842H609.616V840ZM605.618 840H603.619V842H605.618V840ZM601.621 840H599.622V842H601.621V840ZM597.623 840H595.625V842H597.623V840ZM593.626 840H591.627V842H593.626V840ZM589.628 840H587.63V842H589.628V840ZM585.631 840H583.632V842H585.631V840ZM581.634 840H579.635V842H581.634V840ZM577.636 840H575.637V842H577.636V840ZM573.639 840H571.64V842H573.639V840ZM569.641 840H567.643V842H569.641V840ZM565.644 840H563.645V842H565.644V840ZM561.646 840H559.648V842H561.646V840ZM557.649 840H555.65V842H557.649V840ZM553.652 840H551.653V842H553.652V840ZM549.654 840H547.655V842H549.654V840ZM545.657 840H543.658V842H545.657V840ZM541.659 840H539.66V842H541.659V840ZM537.661 840H535.663V842H537.661V840ZM533.664 840H531.665V842H533.664V840ZM529.666 840H527.668V842H529.666V840ZM525.669 840H523.67V842H525.669V840ZM521.671 840H519.672V842H521.671V840ZM517.674 840H515.675V842H517.674V840ZM513.676 840H511.677V842H513.676V840ZM509.679 840H507.68V842H509.679V840ZM505.681 840H503.682V842H505.681V840ZM501.683 840H499.685V842H501.683V840ZM497.686 840H495.687V842H497.686V840ZM493.688 840H491.69V842H493.688V840ZM489.691 840H487.692V842H489.691V840ZM485.693 840H483.694V842H485.693V840ZM481.696 840H479.697V842H481.696V840ZM477.698 840H475.699V842H477.698V840ZM473.701 840H471.702V842H473.701V840ZM469.703 840H467.704V842H469.703V840ZM465.705 840H463.707V842H465.705V840ZM461.708 840H459.709V842H461.708V840ZM457.71 840H455.712V842H457.71V840ZM453.713 840H451.714V842H453.713V840ZM449.715 840H447.716V842H449.715V840ZM445.718 840H443.719V842H445.718V840ZM441.72 840H439.721V842H441.72V840ZM437.723 840H435.724V842H437.723V840ZM433.725 840H431.726V842H433.725V840ZM429.727 840H427.729V842H429.727V840ZM425.73 840H423.731V842H425.73V840ZM421.732 840H419.733V842H421.732V840ZM417.735 840H415.736V842H417.735V840ZM413.737 840H411.738V842H413.737V840ZM409.74 840H407.741V842H409.74V840ZM405.742 840H403.743V842H405.742V840ZM401.745 840H399.746V842H401.745V840ZM397.747 840H395.748V842H397.747V840ZM393.749 840H391.751V842H393.749V840ZM389.752 840H387.753V842H389.752V840ZM385.754 840H383.755V842H385.754V840ZM381.757 840H379.758V842H381.757V840ZM377.759 840H375.76V842H377.759V840ZM373.762 840H371.763V842H373.762V840ZM369.764 840H367.765V842H369.764V840ZM365.766 840H363.768V842H365.766V840ZM361.769 840H359.77V842H361.769V840ZM357.771 840H355.773V842H357.771V840ZM353.774 840H351.775V842H353.774V840ZM349.776 840H347.777V842H349.776V840ZM345.779 840H343.78V842H345.779V840ZM341.781 840H339.782V842H341.781V840ZM337.784 840H335.785V842H337.784V840ZM333.786 840H331.787V842H333.786V840ZM329.788 840H327.79V842H329.788V840ZM325.791 840H323.792V842H325.791V840ZM321.793 840H319.795V842H321.793V840ZM317.796 840H315.797V842H317.796V840ZM313.798 840H311.799V842H313.798V840ZM309.801 840H307.802V842H309.801V840ZM305.803 840H303.804V842H305.803V840ZM301.805 840H299.807V842H301.805V840ZM297.808 840H295.809V842H297.808V840ZM293.81 840H291.812V842H293.81V840ZM289.813 840H287.814V842H289.813V840ZM285.815 840H283.817V842H285.815V840ZM281.818 840H279.819V842H281.818V840ZM277.82 840H275.821V842H277.82V840ZM273.823 840H271.824V842H273.823V840ZM269.825 840H267.826V842H269.825V840ZM265.827 840H263.829V842H265.827V840ZM261.83 840H259.831V842H261.83V840ZM257.832 840H255.834V842H257.832V840ZM253.835 840H251.836V842H253.835V840ZM249.837 840H247.838V842H249.837V840ZM245.84 840H243.841V842H245.84V840ZM241.842 840H239.843V842H241.842V840ZM237.845 840H235.846V842H237.845V840ZM233.847 840H231.848V842H233.847V840ZM229.85 840H227.851V842H229.85V840ZM225.852 840H223.853V842H225.852V840ZM221.854 840H219.856V842H221.854V840ZM217.857 840H215.858V842H217.857V840ZM213.859 840H211.86V842H213.859V840ZM209.862 840H207.863V842H209.862V840ZM205.864 840H203.865V842H205.864V840ZM201.867 840H199.868V842H201.867V840ZM197.869 840H195.87V842H197.869V840ZM193.872 840H191.873V842H193.872V840ZM189.874 840H187.875V842H189.874V840ZM185.876 840H183.878V842H185.876V840ZM181.879 840H179.88V842H181.879V840ZM177.881 840H175.882V842H177.881V840ZM173.884 840H171.885V842H173.884V840ZM169.886 840H167.887V842H169.886V840ZM165.889 840H163.89V842H165.889V840ZM161.891 840H159.892V842H161.891V840ZM157.893 840H155.895V842H157.893V840ZM153.896 840H151.897V842H153.896V840ZM149.898 840H147.9V842H149.898V840ZM145.901 840H143.902V842H145.901V840ZM141.903 840H139.904V842H141.903V840ZM137.906 840H135.907V842H137.906V840ZM133.908 840H131.909V842H133.908V840ZM129.911 840H127.912V842H129.911V840ZM125.913 840H123.914V842H125.913V840ZM121.915 840H119.917V842H121.915V840ZM117.918 840H115.919V842H117.918V840ZM113.92 840H111.922V842H113.92V840ZM109.923 840H107.924V842H109.923V840ZM105.925 840H103.926V842H105.925V840ZM101.928 840H99.9288V842H101.928V840ZM97.93 840H95.9313V842H97.93V840ZM93.9325 840H91.9337V842H93.9325V840ZM89.9349 840H87.9361V842H89.9349V840ZM85.9374 840H83.9386V842H85.9374V840ZM81.9398 840H79.9411V842H81.9398V840ZM77.9422 840H75.9435V842H77.9422V840ZM73.9447 840H71.9459V842H73.9447V840ZM69.9472 840H67.9483V842H69.9472V840ZM65.9496 840H63.9508V842H65.9496V840ZM61.952 840H59.9533V842H61.952V840ZM57.9545 840H55.9557V842H57.9545V840ZM53.9569 840H51.9581V842H53.9569V840ZM49.9594 840H47.9606V842H49.9594V840ZM45.9617 840H43.963V842H45.9617V840ZM41.9642 840H39.9655V842H41.9642V840ZM37.9667 840H35.9679V842H37.9667V840ZM33.9691 840H31.9703V842H33.9691V840ZM29.9716 840H27.9728V842H29.9716V840ZM25.974 840H23.9752V842H25.974V840ZM21.9764 840H19.9777V842H21.9764V840ZM17.9789 840H15.9801V842H17.9789V840ZM13.9813 840H11.9825V842H13.9813V840ZM9.98381 840H7.98499V842H9.98381V840ZM5.98618 840H3.98746V842H5.98618V840ZM1.98864 840H1V842H1.98864V840ZM2 841V840.003H0V841H2ZM2 838.008V836.013H0V838.008H2ZM2 834.018V832.023H0V834.018H2ZM2 830.028V828.033H0V830.028H2ZM2 826.038V824.043H0V826.038H2ZM2 822.048V820.053H0V822.048H2ZM2 818.058V816.063H0V818.058H2ZM2 814.068V812.073H0V814.068H2ZM2 810.078V808.083H0V810.078H2ZM2 806.088V804.093H0V806.088H2ZM2 802.098V800.104H0V802.098H2ZM2 798.109V796.114H0V798.109H2ZM2 794.119V792.124H0V794.119H2ZM2 790.129V788.134H0V790.129H2ZM2 786.139V784.144H0V786.139H2ZM2 782.149V780.154H0V782.149H2ZM2 778.159V776.164H0V778.159H2ZM2 774.169V772.174H0V774.169H2ZM2 770.179V768.184H0V770.179H2ZM2 766.189V764.194H0V766.189H2ZM2 762.199V760.205H0V762.199H2ZM2 758.21V756.215H0V758.21H2ZM2 754.22V752.225H0V754.22H2ZM2 750.23V748.235H0V750.23H2ZM2 746.24V744.245H0V746.24H2ZM2 742.25V740.255H0V742.25H2ZM2 738.26V736.265H0V738.26H2ZM2 734.27V732.275H0V734.27H2ZM2 730.28V728.285H0V730.28H2ZM2 726.29V724.295H0V726.29H2ZM2 722.301V720.306H0V722.301H2ZM2 718.311V716.316H0V718.311H2ZM2 714.321V712.326H0V714.321H2ZM2 710.331V708.336H0V710.331H2ZM2 706.341V704.346H0V706.341H2ZM2 702.351V700.356H0V702.351H2ZM2 698.361V696.366H0V698.361H2ZM2 694.371V692.376H0V694.371H2ZM2 690.381V688.386H0V690.381H2ZM2 686.391V684.396H0V686.391H2ZM2 682.402V680.407H0V682.402H2ZM2 678.412V676.417H0V678.412H2ZM2 674.422V672.427H0V674.422H2ZM2 670.432V668.437H0V670.432H2ZM2 666.442V664.447H0V666.442H2ZM2 662.452V660.457H0V662.452H2ZM2 658.462V656.467H0V658.462H2ZM2 654.472V652.477H0V654.472H2ZM2 650.482V648.487H0V650.482H2ZM2 646.492V644.497H0V646.492H2ZM2 642.503V640.508H0V642.503H2ZM2 638.513V636.518H0V638.513H2ZM2 634.523V632.528H0V634.523H2ZM2 630.533V628.538H0V630.533H2ZM2 626.543V624.548H0V626.543H2ZM2 622.553V620.558H0V622.553H2ZM2 618.563V616.568H0V618.563H2ZM2 614.573V612.578H0V614.573H2ZM2 610.583V608.588H0V610.583H2ZM2 606.593V604.599H0V606.593H2ZM2 602.604V600.609H0V602.604H2ZM2 598.614V596.619H0V598.614H2ZM2 594.624V592.629H0V594.624H2ZM2 590.634V588.639H0V590.634H2ZM2 586.644V584.649H0V586.644H2ZM2 582.654V580.659H0V582.654H2ZM2 578.664V576.669H0V578.664H2ZM2 574.674V572.679H0V574.674H2ZM2 570.684V568.689H0V570.684H2ZM2 566.694V564.699H0V566.694H2ZM2 562.704V560.709H0V562.704H2ZM2 558.714V556.719H0V558.714H2ZM2 554.725V552.73H0V554.725H2ZM2 550.735V548.74H0V550.735H2ZM2 546.745V544.75H0V546.745H2ZM2 542.755V540.76H0V542.755H2ZM2 538.765V536.77H0V538.765H2ZM2 534.775V532.78H0V534.775H2ZM2 530.785V528.79H0V530.785H2ZM2 526.795V524.8H0V526.795H2ZM2 522.805V520.81H0V522.805H2ZM2 518.815V516.82H0V518.815H2ZM2 514.825V512.83H0V514.825H2ZM2 510.835V508.84H0V510.835H2ZM2 506.845V504.85H0V506.845H2ZM2 502.855V500.86H0V502.855H2ZM2 498.866V496.871H0V498.866H2ZM2 494.876V492.881H0V494.876H2ZM2 490.886V488.891H0V490.886H2ZM2 486.896V484.901H0V486.896H2ZM2 482.906V480.911H0V482.906H2ZM2 478.916V476.921H0V478.916H2ZM2 474.926V472.931H0V474.926H2ZM2 470.936V468.941H0V470.936H2ZM2 466.946V464.951H0V466.946H2ZM2 462.956V460.961H0V462.956H2ZM2 458.966V456.971H0V458.966H2ZM2 454.976V452.981H0V454.976H2ZM2 450.986V448.991H0V450.986H2ZM2 446.996V445.001H0V446.996H2ZM2 443.006V441.012H0V443.006H2ZM2 439.017V437.022H0V439.017H2ZM2 435.027V433.032H0V435.027H2ZM2 431.037V429.042H0V431.037H2ZM2 427.047V425.052H0V427.047H2ZM2 423.057V421.062H0V423.057H2ZM2 419.067V417.072H0V419.067H2ZM2 415.077V413.082H0V415.077H2ZM2 411.087V409.092H0V411.087H2ZM2 407.097V405.102H0V407.097H2ZM2 403.107V401.112H0V403.107H2ZM2 399.117V397.122H0V399.117H2ZM2 395.127V393.132H0V395.127H2ZM2 391.137V389.142H0V391.137H2ZM2 387.147V385.153H0V387.147H2ZM2 383.158V381.163H0V383.158H2ZM2 379.168V377.173H0V379.168H2ZM2 375.178V373.183H0V375.178H2ZM2 371.188V369.193H0V371.188H2ZM2 367.198V365.203H0V367.198H2ZM2 363.208V361.213H0V363.208H2ZM2 359.218V357.223H0V359.218H2ZM2 355.228V353.233H0V355.228H2ZM2 351.238V349.243H0V351.238H2ZM2 347.248V345.253H0V347.248H2ZM2 343.258V341.263H0V343.258H2ZM2 339.268V337.273H0V339.268H2ZM2 335.278V333.283H0V335.278H2ZM2 331.289V329.294H0V331.289H2ZM2 327.299V325.304H0V327.299H2ZM2 323.309V321.314H0V323.309H2ZM2 319.319V317.324H0V319.319H2ZM2 315.329V313.334H0V315.329H2ZM2 311.339V309.344H0V311.339H2ZM2 307.349V305.354H0V307.349H2ZM2 303.359V301.364H0V303.359H2ZM2 299.37V297.375H0V299.37H2ZM2 295.38V293.385H0V295.38H2ZM2 291.39V289.395H0V291.39H2ZM2 287.4V285.405H0V287.4H2ZM2 283.41V281.415H0V283.41H2ZM2 279.42V277.425H0V279.42H2ZM2 275.43V273.435H0V275.43H2ZM2 271.44V269.445H0V271.44H2ZM2 267.451V265.456H0V267.451H2ZM2 263.461V261.466H0V263.461H2ZM2 259.471V257.476H0V259.471H2ZM2 255.481V253.486H0V255.481H2ZM2 251.491V249.496H0V251.491H2ZM2 247.501V245.506H0V247.501H2ZM2 243.511V241.516H0V243.511H2ZM2 239.521V237.527H0V239.521H2ZM2 235.532V233.537H0V235.532H2ZM2 231.542V229.547H0V231.542H2ZM2 227.552V225.557H0V227.552H2ZM2 223.562V221.567H0V223.562H2ZM2 219.572V217.577H0V219.572H2ZM2 215.582V213.587H0V215.582H2ZM2 211.592V209.597H0V211.592H2ZM2 207.603V205.608H0V207.603H2ZM2 203.613V201.618H0V203.613H2ZM2 199.623V197.628H0V199.623H2ZM2 195.633V193.638H0V195.633H2ZM2 191.643V189.648H0V191.643H2ZM2 187.653V185.658H0V187.653H2ZM2 183.663V181.668H0V183.663H2ZM2 179.673V177.679H0V179.673H2ZM2 175.684V173.689H0V175.684H2ZM2 171.694V169.699H0V171.694H2ZM2 167.704V165.709H0V167.704H2ZM2 163.714V161.719H0V163.714H2ZM2 159.724V157.729H0V159.724H2ZM2 155.734V153.739H0V155.734H2ZM2 151.744V149.749H0V151.744H2ZM2 147.755V145.76H0V147.755H2ZM2 143.765V141.77H0V143.765H2ZM2 139.775V137.78H0V139.775H2ZM2 135.785V133.79H0V135.785H2ZM2 131.795V129.8H0V131.795H2ZM2 127.805V125.81H0V127.805H2ZM2 123.815V121.82H0V123.815H2ZM2 119.825V117.831H0V119.825H2ZM2 115.836V113.841H0V115.836H2ZM2 111.846V109.851H0V111.846H2ZM2 107.856V105.861H0V107.856H2ZM2 103.866V101.871H0V103.866H2ZM2 99.8761V97.8812H0V99.8761H2ZM2 95.8862V93.8913H0V95.8862H2ZM2 91.8964V89.9014H0V91.8964H2ZM2 87.9065V85.9116H0V87.9065H2ZM2 83.9166V81.9217H0V83.9166H2ZM2 79.9268V77.9318H0V79.9268H2ZM2 75.9369V73.942H0V75.9369H2ZM2 71.9471V69.9521H0V71.9471H2ZM2 67.9572V65.9622H0V67.9572H2ZM2 63.9673V61.9724H0V63.9673H2ZM2 59.9774V57.9825H0V59.9774H2ZM2 55.9875V53.9926H0V55.9875H2ZM2 51.9977V51H0V51.9977H2ZM2 51C2 50.6773 2.00312 50.3553 2.00933 50.0341L0.00970039 49.9954C0.00324317 50.3295 0 50.6644 0 51H2ZM2.08365 48.1124C2.12099 47.4695 2.17073 46.83 2.23261 46.1941L0.242019 46.0004C0.177618 46.6621 0.125868 47.3275 0.0870122 47.9964L2.08365 48.1124ZM2.45669 44.2814C2.54412 43.6437 2.64381 43.0099 2.75552 42.3803L0.786281 42.0309C0.669991 42.6863 0.566221 43.346 0.475224 44.0097L2.45669 44.2814ZM3.12884 40.4935C3.26602 39.8655 3.41523 39.2421 3.57623 38.6234L1.6407 38.1197C1.47307 38.7638 1.31773 39.4129 1.17492 40.0666L3.12884 40.4935ZM4.0977 36.7708C4.28414 36.1554 4.48236 35.5452 4.6921 34.9403L2.80248 34.2851C2.58411 34.9149 2.37773 35.5502 2.18362 36.1909L4.0977 36.7708ZM5.35827 33.1353C5.59256 32.5372 5.83828 31.9448 6.09515 31.3584L4.2632 30.5559C3.99578 31.1664 3.73997 31.7832 3.49604 32.4059L5.35827 33.1353ZM6.90155 29.6121C7.18229 29.0343 7.47405 28.4629 7.77657 27.8981L6.01354 26.9538C5.69864 27.5417 5.39493 28.1365 5.10268 28.738L6.90155 29.6121ZM8.71846 26.2198C9.04365 25.6662 9.37941 25.1195 9.72546 24.58L8.04204 23.5002C7.68187 24.0616 7.33241 24.6306 6.99394 25.2069L8.71846 26.2198ZM10.796 22.981C11.1634 22.4548 11.5409 21.9361 11.9283 21.4252L10.3345 20.2169C9.93144 20.7486 9.53856 21.2884 9.15615 21.836L10.796 22.981ZM13.1206 19.9147C13.5281 19.4188 13.945 18.9311 14.3713 18.4517L12.8767 17.1227C12.4332 17.6215 11.9993 18.129 11.5753 18.645L13.1206 19.9147ZM15.678 17.0388C16.1227 16.5764 16.5764 16.1227 17.0388 15.678L15.6525 14.2365C15.1713 14.6992 14.6992 15.1713 14.2365 15.6525L15.678 17.0388ZM18.4517 14.3713C18.9311 13.945 19.4188 13.5281 19.9147 13.1207L18.645 11.5753C18.129 11.9993 17.6215 12.4332 17.1227 12.8767L18.4517 14.3713ZM21.4252 11.9283C21.9361 11.5409 22.4548 11.1634 22.981 10.796L21.836 9.15615C21.2884 9.53856 20.7486 9.93145 20.2169 10.3345L21.4252 11.9283ZM24.58 9.72547C25.1195 9.37942 25.6662 9.04365 26.2198 8.71846L25.2069 6.99394C24.6306 7.33242 24.0616 7.68188 23.5001 8.04204L24.58 9.72547ZM27.8981 7.77657C28.4629 7.47405 29.0343 7.18229 29.6121 6.90155L28.738 5.10269C28.1365 5.39493 27.5417 5.69864 26.9538 6.01354L27.8981 7.77657ZM31.3584 6.09515C31.9448 5.83828 32.5372 5.59256 33.1353 5.35827L32.4059 3.49604C31.7832 3.73997 31.1664 3.99578 30.5559 4.2632L31.3584 6.09515ZM34.9403 4.6921C35.5452 4.48236 36.1554 4.28414 36.7708 4.0977L36.1909 2.18362C35.5502 2.37773 34.9148 2.58411 34.2851 2.80248L34.9403 4.6921ZM38.6234 3.57623C39.2421 3.41523 39.8655 3.26602 40.4935 3.12884L40.0666 1.17492C39.4129 1.31773 38.7638 1.47307 38.1197 1.6407L38.6234 3.57623ZM42.3803 2.75552C43.0099 2.64381 43.6436 2.54412 44.2813 2.45669L44.0097 0.475226C43.3459 0.566222 42.6863 0.669993 42.0309 0.786283L42.3803 2.75552ZM46.1941 2.23262C46.83 2.17073 47.4695 2.12099 48.1123 2.08365L47.9963 0.087013C47.3275 0.125869 46.6621 0.177619 46.0004 0.24202L46.1941 2.23262ZM50.034 2.00933C50.3553 2.00312 50.6773 2 51 2V0C50.6644 0 50.3295 0.00324328 49.9954 0.00970072L50.034 2.00933ZM51 2H51.9993V0H51V2ZM53.998 2H55.9966V0H53.998V2ZM57.9952 2H59.9939V0H57.9952V2ZM61.9925 2H63.9912V0H61.9925V2ZM65.9898 2H67.9884V0H65.9898V2ZM69.9871 2H71.9857V0H69.9871V2ZM73.9844 2H75.983V0H73.9844V2ZM77.9817 2H79.9803V0H77.9817V2ZM81.9789 2H83.9776V0H81.9789V2ZM85.9762 2H87.9749V0H85.9762V2ZM89.9735 2H91.9722V0H89.9735V2ZM93.9708 2H95.9694V0H93.9708V2ZM97.9681 2H99.9667V0H97.9681V2ZM101.965 2H103.964V0H101.965V2ZM105.963 2H107.961V0H105.963V2ZM109.96 2H111.959V0H109.96V2ZM113.957 2H115.956V0H113.957V2ZM117.955 2H119.953V0H117.955V2ZM121.952 2H123.95V0H121.952V2ZM125.949 2H127.948V0H125.949V2ZM129.946 2H131.945V0H129.946V2ZM133.944 2H135.942V0H133.944V2ZM137.941 2H139.94V0H137.941V2ZM141.938 2H143.937V0H141.938V2ZM145.935 2H147.934V0H145.935V2ZM149.933 2H151.931V0H149.933V2ZM153.93 2H155.929V0H153.93V2ZM157.927 2H159.926V0H157.927V2ZM161.925 2H163.923V0H161.925V2ZM165.922 2H167.921V0H165.922V2ZM169.919 2H171.918V0H169.919V2ZM173.916 2H175.915V0H173.916V2ZM177.914 2H179.912V0H177.914V2ZM181.911 2H183.91V0H181.911V2ZM185.908 2H187.907V0H185.908V2ZM189.906 2H191.904V0H189.906V2ZM193.903 2H195.902V0H193.903V2ZM197.9 2H199.899V0H197.9V2ZM201.897 2H203.896V0H201.897V2ZM205.895 2H207.893V0H205.895V2ZM209.892 2H211.891V0H209.892V2ZM213.889 2H215.888V0H213.889V2ZM217.887 2H219.885V0H217.887V2ZM221.884 2H223.883V0H221.884V2ZM225.881 2H227.88V0H225.881V2ZM229.878 2H231.877V0H229.878V2ZM233.876 2H235.874V0H233.876V2ZM237.873 2H239.872V0H237.873V2ZM241.87 2H243.869V0H241.87V2ZM245.868 2H247.866V0H245.868V2ZM249.865 2H251.864V0H249.865V2ZM253.862 2H255.861V0H253.862V2ZM257.859 2H259.858V0H257.859V2ZM261.857 2H263.855V0H261.857V2ZM265.854 2H267.853V0H265.854V2ZM269.851 2H271.85V0H269.851V2ZM273.849 2H275.847V0H273.849V2ZM277.846 2H279.845V0H277.846V2ZM281.843 2H283.842V0H281.843V2ZM285.84 2H287.839V0H285.84V2ZM289.838 2H291.836V0H289.838V2ZM293.835 2H295.834V0H293.835V2ZM297.832 2H299.831V0H297.832V2ZM301.83 2H303.828V0H301.83V2ZM305.827 2H307.825V0H305.827V2ZM309.824 2H311.823V0H309.824V2ZM313.821 2H315.82V0H313.821V2ZM317.819 2H319.817V0H317.819V2ZM321.816 2H323.814V0H321.816V2ZM325.813 2H327.812V0H325.813V2ZM329.81 2H331.809V0H329.81V2ZM333.808 2H335.806V0H333.808V2ZM337.805 2H339.804V0H337.805V2ZM341.802 2H343.801V0H341.802V2ZM345.799 2H347.798V0H345.799V2ZM349.797 2H351.795V0H349.797V2ZM353.794 2H355.793V0H353.794V2ZM357.791 2H359.79V0H357.791V2ZM361.788 2H363.787V0H361.788V2ZM365.786 2H367.784V0H365.786V2ZM369.783 2H371.782V0H369.783V2ZM373.78 2H375.779V0H373.78V2ZM377.777 2H379.776V0H377.777V2ZM381.775 2H383.773V0H381.775V2ZM385.772 2H387.771V0H385.772V2ZM389.769 2H391.768V0H389.769V2ZM393.766 2H395.765V0H393.766V2ZM397.764 2H399.762V0H397.764V2ZM401.761 2H403.76V0H401.761V2ZM405.758 2H407.757V0H405.758V2ZM409.755 2H411.754V0H409.755V2ZM413.753 2H415.751V0H413.753V2ZM417.75 2H419.749V0H417.75V2ZM421.747 2H423.746V0H421.747V2ZM425.744 2H427.743V0H425.744V2ZM429.742 2H431.74V0H429.742V2ZM433.739 2H435.738V0H433.739V2ZM437.736 2H439.735V0H437.736V2ZM441.733 2H443.732V0H441.733V2ZM445.731 2H447.729V0H445.731V2ZM449.728 2H451.727V0H449.728V2ZM453.725 2H455.724V0H453.725V2ZM457.722 2H459.721V0H457.722V2ZM461.72 2H463.718V0H461.72V2ZM465.717 2H467.716V0H465.717V2ZM469.714 2H471.713V0H469.714V2ZM473.711 2H475.71V0H473.711V2ZM477.709 2H479.707V0H477.709V2ZM481.706 2H483.705V0H481.706V2ZM485.703 2H487.702V0H485.703V2ZM489.7 2H491.699V0H489.7V2ZM493.698 2H495.696V0H493.698V2ZM497.695 2H499.694V0H497.695V2ZM501.692 2H503.691V0H501.692V2ZM505.69 2H507.688V0H505.69V2ZM509.687 2H511.685V0H509.687V2ZM513.684 2H515.683V0H513.684V2ZM517.681 2H519.68V0H517.681V2ZM521.679 2H523.677V0H521.679V2ZM525.676 2H527.674V0H525.676V2ZM529.673 2H531.672V0H529.673V2ZM533.67 2H535.669V0H533.67V2ZM537.668 2H539.666V0H537.668V2ZM541.665 2H543.663V0H541.665V2ZM545.662 2H547.661V0H545.662V2ZM549.659 2H551.658V0H549.659V2ZM553.657 2H555.655V0H553.657V2ZM557.654 2H559.652V0H557.654V2ZM561.651 2H563.65V0H561.651V2ZM565.648 2H567.647V0H565.648V2ZM569.646 2H571.644V0H569.646V2ZM573.643 2H575.642V0H573.643V2ZM577.64 2H579.639V0H577.64V2ZM581.638 2H583.636V0H581.638V2ZM585.635 2H587.634V0H585.635V2ZM589.632 2H591.631V0H589.632V2ZM593.63 2H595.628V0H593.63V2ZM597.627 2H599.626V0H597.627V2ZM601.624 2H603.623V0H601.624V2ZM605.622 2H607.62V0H605.622V2ZM609.619 2H611.617V0H609.619V2ZM613.616 2H615.615V0H613.616V2ZM617.613 2H619.612V0H617.613V2ZM621.611 2H623.609V0H621.611V2ZM625.608 2H627.607V0H625.608V2ZM629.605 2H631.604V0H629.605V2ZM633.603 2H635.601V0H633.603V2ZM637.6 2H639.599V0H637.6V2ZM641.597 2H643.596V0H641.597V2ZM645.595 2H647.593V0H645.595V2ZM649.592 2H651.591V0H649.592V2ZM653.589 2H655.588V0H653.589V2ZM657.587 2H659.585V0H657.587V2ZM661.584 2H663.583V0H661.584V2ZM665.581 2H667.58V0H665.581V2ZM669.579 2H671.577V0H669.579V2ZM673.576 2H675.575V0H673.576V2ZM677.573 2H679.572V0H677.573V2ZM681.57 2H683.569V0H681.57V2ZM685.568 2H687.566V0H685.568V2ZM689.565 2H691.564V0H689.565V2ZM693.562 2H695.561V0H693.562V2ZM697.56 2H699.558V0H697.56V2ZM701.557 2H703.556V0H701.557V2ZM705.554 2H707.553V0H705.554V2ZM709.552 2H711.55V0H709.552V2ZM713.549 2H715.548V0H713.549V2ZM717.546 2H719.545V0H717.546V2ZM721.544 2H723.542V0H721.544V2ZM725.541 2H727.54V0H725.541V2ZM729.538 2H731.537V0H729.538V2ZM733.536 2H735.534V0H733.536V2ZM737.533 2H739.532V0H737.533V2ZM741.53 2H743.529V0H741.53V2ZM745.528 2H747.526V0H745.528V2ZM749.525 2H751.524V0H749.525V2ZM753.522 2H755.521V0H753.522V2ZM757.519 2H759.518V0H757.519V2ZM761.517 2H763.515V0H761.517V2ZM765.514 2H767.513V0H765.514V2ZM769.511 2H771.51V0H769.511V2ZM773.509 2H775.507V0H773.509V2ZM777.506 2H779.505V0H777.506V2ZM781.503 2H783.502V0H781.503V2ZM785.501 2H787.499V0H785.501V2ZM789.498 2H791.497V0H789.498V2ZM793.495 2H795.494V0H793.495V2ZM797.493 2H799.491V0H797.493V2ZM801.49 2H803.489V0H801.49V2ZM805.487 2H807.486V0H805.487V2ZM809.485 2H811.483V0H809.485V2ZM813.482 2H815.481V0H813.482V2ZM817.479 2H819.478V0H817.479V2ZM821.477 2H823.475V0H821.477V2ZM825.474 2H827.472V0H825.474V2ZM829.471 2H831.47V0H829.471V2ZM833.468 2H835.467V0H833.468V2ZM837.466 2H839.464V0H837.466V2ZM841.463 2H843.462V0H841.463V2ZM845.46 2H847.459V0H845.46V2ZM849.458 2H851.456V0H849.458V2ZM853.455 2H855.454V0H853.455V2ZM857.452 2H859.451V0H857.452V2ZM861.45 2H863.448V0H861.45V2ZM865.447 2H867.446V0H865.447V2ZM869.444 2H871.443V0H869.444V2ZM873.442 2H875.44V0H873.442V2ZM877.439 2H879.438V0H877.439V2ZM881.436 2H883.435V0H881.436V2ZM885.434 2H887.432V0H885.434V2ZM889.431 2H891.43V0H889.431V2ZM893.428 2H895.427V0H893.428V2ZM897.425 2H899.424V0H897.425V2ZM901.423 2H903.421V0H901.423V2ZM905.42 2H907.419V0H905.42V2ZM909.417 2H911.416V0H909.417V2ZM913.415 2H915.413V0H913.415V2ZM917.412 2H919.411V0H917.412V2ZM921.409 2H923.408V0H921.409V2ZM925.407 2H927.405V0H925.407V2ZM929.404 2H931.403V0H929.404V2ZM933.401 2H935.4V0H933.401V2ZM937.399 2H939.397V0H937.399V2ZM941.396 2H943.395V0H941.396V2ZM945.393 2H947.392V0H945.393V2ZM949.391 2H951.389V0H949.391V2ZM953.388 2H955.387V0H953.388V2ZM957.385 2H959.384V0H957.385V2ZM961.383 2H963.381V0H961.383V2ZM965.38 2H967.379V0H965.38V2ZM969.377 2H971.376V0H969.377V2ZM973.374 2H975.373V0H973.374V2ZM977.372 2H979.37V0H977.372V2ZM981.369 2H983.368V0H981.369V2ZM985.366 2H987.365V0H985.366V2ZM989.364 2H991.362V0H989.364V2ZM993.361 2H995.36V0H993.361V2ZM997.358 2H999.357V0H997.358V2ZM1001.36 2H1003.35V0H1001.36V2ZM1005.35 2H1007.35V0H1005.35V2ZM1009.35 2H1011.35V0H1009.35V2ZM1013.35 2H1015.35V0H1013.35V2ZM1017.34 2H1019.34V0H1017.34V2ZM1021.34 2H1023.34V0H1021.34V2ZM1025.34 2H1027.34V0H1025.34V2ZM1029.34 2H1031.34V0H1029.34V2ZM1033.33 2H1035.33V0H1033.33V2ZM1037.33 2H1039.33V0H1037.33V2ZM1041.33 2H1043.33V0H1041.33V2ZM1045.33 2H1047.32V0H1045.33V2ZM1049.32 2H1051.32V0H1049.32V2ZM1053.32 2H1055.32V0H1053.32V2ZM1057.32 2H1059.32V0H1057.32V2ZM1061.32 2H1063.31V0H1061.32V2ZM1065.31 2H1067.31V0H1065.31V2ZM1069.31 2H1071.31V0H1069.31V2ZM1073.31 2H1075.31V0H1073.31V2ZM1077.3 2H1079.3V0H1077.3V2ZM1081.3 2H1083.3V0H1081.3V2ZM1085.3 2H1087.3V0H1085.3V2ZM1089.3 2H1091.3V0H1089.3V2ZM1093.29 2H1095.29V0H1093.29V2ZM1097.29 2H1099.29V0H1097.29V2ZM1101.29 2H1103.29V0H1101.29V2ZM1105.29 2H1107.28V0H1105.29V2ZM1109.28 2H1111.28V0H1109.28V2ZM1113.28 2H1115.28V0H1113.28V2ZM1117.28 2H1119.28V0H1117.28V2ZM1121.28 2H1123.27V0H1121.28V2ZM1125.27 2H1127.27V0H1125.27V2ZM1129.27 2H1131.27V0H1129.27V2ZM1133.27 2H1135.27V0H1133.27V2ZM1137.26 2H1139.26V0H1137.26V2ZM1141.26 2H1143.26V0H1141.26V2ZM1145.26 2H1147.26V0H1145.26V2ZM1149.26 2H1151.25V0H1149.26V2ZM1153.25 2H1155.25V0H1153.25V2ZM1157.25 2H1159.25V0H1157.25V2ZM1161.25 2H1163.25V0H1161.25V2ZM1165.25 2H1167.24V0H1165.25V2ZM1169.24 2H1171.24V0H1169.24V2ZM1173.24 2H1175.24V0H1173.24V2ZM1177.24 2H1179.24V0H1177.24V2ZM1181.23 2H1183.23V0H1181.23V2ZM1185.23 2H1187.23V0H1185.23V2ZM1189.23 2H1191.23V0H1189.23V2ZM1193.23 2H1195.23V0H1193.23V2ZM1197.22 2H1199.22V0H1197.22V2ZM1201.22 2H1203.22V0H1201.22V2ZM1205.22 2H1207.22V0H1205.22V2ZM1209.22 2H1211.21V0H1209.22V2ZM1213.21 2H1215.21V0H1213.21V2ZM1217.21 2H1219.21V0H1217.21V2ZM1221.21 2H1223.21V0H1221.21V2ZM1225.21 2H1227.2V0H1225.21V2ZM1229.2 2H1231.2V0H1229.2V2ZM1233.2 2H1235.2V0H1233.2V2ZM1237.2 2H1239.2V0H1237.2V2ZM1241.19 2H1243.19V0H1241.19V2ZM1245.19 2H1247.19V0H1245.19V2ZM1249.19 2H1251.19V0H1249.19V2ZM1253.19 2H1255.19V0H1253.19V2ZM1257.18 2H1259.18V0H1257.18V2ZM1261.18 2H1263.18V0H1261.18V2ZM1265.18 2H1267.18V0H1265.18V2ZM1269.18 2H1271.17V0H1269.18V2ZM1273.17 2H1275.17V0H1273.17V2ZM1277.17 2H1279.17V0H1277.17V2ZM1281.17 2H1283.17V0H1281.17V2ZM1285.16 2H1287.16V0H1285.16V2ZM1289.16 2H1291.16V0H1289.16V2ZM1293.16 2H1295.16V0H1293.16V2ZM1297.16 2H1299.16V0H1297.16V2ZM1301.15 2H1303.15V0H1301.15V2ZM1305.15 2H1307.15V0H1305.15V2ZM1309.15 2H1311.15V0H1309.15V2ZM1313.15 2H1315.14V0H1313.15V2ZM1317.14 2H1319.14V0H1317.14V2ZM1321.14 2H1323.14V0H1321.14V2ZM1325.14 2H1327.14V0H1325.14V2ZM1329.14 2H1331.13V0H1329.14V2ZM1333.13 2H1335.13V0H1333.13V2ZM1337.13 2H1339.13V0H1337.13V2ZM1341.13 2H1343.13V0H1341.13V2ZM1345.12 2H1347.12V0H1345.12V2ZM1349.12 2H1351.12V0H1349.12V2ZM1353.12 2H1355.12V0H1353.12V2ZM1357.12 2H1359.12V0H1357.12V2ZM1361.11 2H1363.11V0H1361.11V2ZM1365.11 2H1367.11V0H1365.11V2ZM1369.11 2H1371.11V0H1369.11V2ZM1373.11 2H1375.1V0H1373.11V2ZM1377.1 2H1379.1V0H1377.1V2ZM1381.1 2H1383.1V0H1381.1V2ZM1385.1 2H1387.1V0H1385.1V2ZM1389.1 2H1391.09V0H1389.1V2ZM1393.09 2H1395.09V0H1393.09V2ZM1397.09 2H1399.09V0H1397.09V2ZM1401.09 2H1403.09V0H1401.09V2ZM1405.08 2H1407.08V0H1405.08V2ZM1409.08 2H1411.08V0H1409.08V2ZM1413.08 2H1415.08V0H1413.08V2ZM1417.08 2H1419.08V0H1417.08V2ZM1421.07 2H1423.07V0H1421.07V2ZM1425.07 2H1427.07V0H1425.07V2ZM1429.07 2H1431.07V0H1429.07V2ZM1433.07 2H1435.06V0H1433.07V2ZM1437.06 2H1439.06V0H1437.06V2ZM1441.06 2H1443.06V0H1441.06V2ZM1445.06 2H1447.06V0H1445.06V2ZM1449.05 2H1451.05V0H1449.05V2ZM1453.05 2H1455.05V0H1453.05V2ZM1457.05 2H1459.05V0H1457.05V2ZM1461.05 2H1463.05V0H1461.05V2ZM1465.04 2H1467.04V0H1465.04V2ZM1469.04 2H1471.04V0H1469.04V2ZM1473.04 2H1475.04V0H1473.04V2ZM1477.04 2H1479.03V0H1477.04V2ZM1481.03 2H1483.03V0H1481.03V2ZM1485.03 2H1487.03V0H1485.03V2ZM1489.03 2H1491.03V0H1489.03V2ZM1493.03 2H1495.02V0H1493.03V2ZM1497.02 2H1499.02V0H1497.02V2ZM1501.02 2H1503.02V0H1501.02V2ZM1505.02 2H1507.02V0H1505.02V2ZM1509.01 2H1511.01V0H1509.01V2ZM1513.01 2H1515.01V0H1513.01V2ZM1517.01 2H1519.01V0H1517.01V2ZM1521.01 2H1522V0H1521.01V2ZM1522 2C1522.32 2 1522.64 2.00312 1522.97 2.00933L1523 0.00970038C1522.67 0.00324317 1522.34 0 1522 0V2ZM1524.89 2.08365C1525.53 2.12099 1526.17 2.17073 1526.81 2.23261L1527 0.242019C1526.34 0.177618 1525.67 0.125868 1525 0.0870122L1524.89 2.08365ZM1528.72 2.45669C1529.36 2.54412 1529.99 2.64381 1530.62 2.75552L1530.97 0.786281C1530.31 0.669991 1529.65 0.566221 1528.99 0.475224L1528.72 2.45669ZM1532.51 3.12884C1533.13 3.26601 1533.76 3.41523 1534.38 3.57623L1534.88 1.64069C1534.24 1.47307 1533.59 1.31773 1532.93 1.17492L1532.51 3.12884ZM1536.23 4.0977C1536.84 4.28414 1537.45 4.48236 1538.06 4.6921L1538.71 2.80247C1538.09 2.58411 1537.45 2.37773 1536.81 2.18362L1536.23 4.0977ZM1539.86 5.35827C1540.46 5.59256 1541.06 5.83828 1541.64 6.09515L1542.44 4.2632C1541.83 3.99578 1541.22 3.73997 1540.59 3.49604L1539.86 5.35827ZM1543.39 6.90155C1543.97 7.18229 1544.54 7.47405 1545.1 7.77657L1546.05 6.01354C1545.46 5.69864 1544.86 5.39493 1544.26 5.10268L1543.39 6.90155ZM1546.78 8.71846C1547.33 9.04365 1547.88 9.37941 1548.42 9.72546L1549.5 8.04204C1548.94 7.68188 1548.37 7.33241 1547.79 6.99394L1546.78 8.71846ZM1550.02 10.796C1550.55 11.1634 1551.06 11.5409 1551.57 11.9283L1552.78 10.3345C1552.25 9.93144 1551.71 9.53856 1551.16 9.15615L1550.02 10.796ZM1553.09 13.1207C1553.58 13.5281 1554.07 13.945 1554.55 14.3713L1555.88 12.8767C1555.38 12.4332 1554.87 11.9993 1554.35 11.5753L1553.09 13.1207ZM1555.96 15.678C1556.42 16.1227 1556.88 16.5764 1557.32 17.0388L1558.76 15.6525C1558.3 15.1713 1557.83 14.6992 1557.35 14.2365L1555.96 15.678ZM1558.63 18.4517C1559.05 18.9311 1559.47 19.4188 1559.88 19.9147L1561.42 18.645C1561 18.129 1560.57 17.6215 1560.12 17.1227L1558.63 18.4517ZM1561.07 21.4252C1561.46 21.9361 1561.84 22.4548 1562.2 22.981L1563.84 21.836C1563.46 21.2884 1563.07 20.7486 1562.67 20.2169L1561.07 21.4252ZM1563.27 24.58C1563.62 25.1195 1563.96 25.6662 1564.28 26.2198L1566.01 25.2069C1565.67 24.6306 1565.32 24.0616 1564.96 23.5002L1563.27 24.58ZM1565.22 27.8981C1565.53 28.4629 1565.82 29.0343 1566.1 29.6121L1567.9 28.738C1567.61 28.1365 1567.3 27.5417 1566.99 26.9538L1565.22 27.8981ZM1566.9 31.3584C1567.16 31.9448 1567.41 32.5372 1567.64 33.1353L1569.5 32.4059C1569.26 31.7832 1569 31.1664 1568.74 30.5559L1566.9 31.3584ZM1568.31 34.9403C1568.52 35.5452 1568.72 36.1554 1568.9 36.7708L1570.82 36.1909C1570.62 35.5502 1570.42 34.9149 1570.2 34.2851L1568.31 34.9403ZM1569.42 38.6234C1569.58 39.2421 1569.73 39.8655 1569.87 40.4935L1571.83 40.0666C1571.68 39.4129 1571.53 38.7638 1571.36 38.1197L1569.42 38.6234ZM1570.24 42.3803C1570.36 43.0099 1570.46 43.6436 1570.54 44.2813L1572.52 44.0097C1572.43 43.346 1572.33 42.6863 1572.21 42.0309L1570.24 42.3803ZM1570.77 46.1941C1570.83 46.83 1570.88 47.4695 1570.92 48.1123L1572.91 47.9963C1572.87 47.3275 1572.82 46.6621 1572.76 46.0004L1570.77 46.1941ZM1570.99 50.0341C1571 50.3553 1571 50.6773 1571 51H1573C1573 50.6644 1573 50.3295 1572.99 49.9954L1570.99 50.0341ZM1571 51V51.9975H1573V51H1571ZM1571 53.9924V55.9874H1573V53.9924H1571ZM1571 57.9823V59.9773H1573V57.9823H1571ZM1571 61.9722V63.9672H1573V61.9722H1571ZM1571 65.9621V67.9571H1573V65.9621H1571ZM1571 69.952V71.947H1573V69.952H1571ZM1571 73.9419V75.9369H1573V73.9419H1571ZM1571 77.9318V79.9268H1573V77.9318H1571ZM1571 81.9217V83.9167H1573V81.9217H1571ZM1571 85.9116V87.9066H1573V85.9116H1571ZM1571 89.9015V91.8965H1573V89.9015H1571ZM1571 93.8914V95.8864H1573V93.8914H1571ZM1571 97.8813V99.8763H1573V97.8813H1571ZM1571 101.871V103.866H1573V101.871H1571ZM1571 105.861V107.856H1573V105.861H1571ZM1571 109.851V111.846H1573V109.851H1571ZM1571 113.841V115.836H1573V113.841H1571ZM1571 117.831V119.826H1573V117.831H1571ZM1571 121.821V123.816H1573V121.821H1571ZM1571 125.811V127.806H1573V125.811H1571ZM1571 129.801V131.795H1573V129.801H1571ZM1571 133.79V135.785H1573V133.79H1571ZM1571 137.78V139.775H1573V137.78H1571ZM1571 141.77V143.765H1573V141.77H1571ZM1571 145.76V147.755H1573V145.76H1571ZM1571 149.75V151.745H1573V149.75H1571ZM1571 153.74V155.735H1573V153.74H1571ZM1571 157.73V159.725H1573V157.73H1571ZM1571 161.72V163.715H1573V161.72H1571ZM1571 165.71V167.705H1573V165.71H1571ZM1571 169.699V171.694H1573V169.699H1571ZM1571 173.689V175.684H1573V173.689H1571ZM1571 177.679V179.674H1573V177.679H1571ZM1571 181.669V183.664H1573V181.669H1571ZM1571 185.659V187.654H1573V185.659H1571ZM1571 189.649V191.644H1573V189.649H1571ZM1571 193.639V195.634H1573V193.639H1571ZM1571 197.629V199.624H1573V197.629H1571ZM1571 201.619V203.614H1573V201.619H1571ZM1571 205.609V207.604H1573V205.609H1571ZM1571 209.598V211.593H1573V209.598H1571ZM1571 213.588V215.583H1573V213.588H1571ZM1571 217.578V219.573H1573V217.578H1571ZM1571 221.568V223.563H1573V221.568H1571ZM1571 225.558V227.553H1573V225.558H1571ZM1571 229.548V231.543H1573V229.548H1571ZM1571 233.538V235.533H1573V233.538H1571ZM1571 237.528V239.523H1573V237.528H1571ZM1571 241.518V243.513H1573V241.518H1571ZM1571 245.508V247.503H1573V245.508H1571ZM1571 249.497V251.492H1573V249.497H1571ZM1571 253.487V255.482H1573V253.487H1571ZM1571 257.477V259.472H1573V257.477H1571ZM1571 261.467V263.462H1573V261.467H1571ZM1571 265.457V267.452H1573V265.457H1571ZM1571 269.447V271.442H1573V269.447H1571ZM1571 273.437V275.432H1573V273.437H1571ZM1571 277.427V279.422H1573V277.427H1571ZM1571 281.417V283.412H1573V281.417H1571ZM1571 285.407V287.402H1573V285.407H1571ZM1571 289.396V291.391H1573V289.396H1571ZM1571 293.386V295.381H1573V293.386H1571ZM1571 297.376V299.371H1573V297.376H1571ZM1571 301.366V303.361H1573V301.366H1571ZM1571 305.356V307.351H1573V305.356H1571ZM1571 309.346V311.341H1573V309.346H1571ZM1571 313.336V315.331H1573V313.336H1571ZM1571 317.326V319.321H1573V317.326H1571ZM1571 321.316V323.311H1573V321.316H1571ZM1571 325.306V327.301H1573V325.306H1571ZM1571 329.296V331.291H1573V329.296H1571ZM1571 333.286V335.281H1573V333.286H1571ZM1571 337.275V339.27H1573V337.275H1571ZM1571 341.265V343.26H1573V341.265H1571ZM1571 345.255V347.25H1573V345.255H1571ZM1571 349.245V351.24H1573V349.245H1571ZM1571 353.235V355.23H1573V353.235H1571ZM1571 357.225V359.22H1573V357.225H1571ZM1571 361.215V363.21H1573V361.215H1571ZM1571 365.205V367.2H1573V365.205H1571ZM1571 369.195V371.19H1573V369.195H1571ZM1571 373.185V375.18H1573V373.185H1571ZM1571 377.175V379.17H1573V377.175H1571ZM1571 381.165V383.16H1573V381.165H1571ZM1571 385.155V387.15H1573V385.155H1571ZM1571 389.145V391.14H1573V389.145H1571ZM1571 393.134V395.129H1573V393.134H1571ZM1571 397.124V399.119H1573V397.124H1571ZM1571 401.114V403.109H1573V401.114H1571ZM1571 405.104V407.099H1573V405.104H1571ZM1571 409.094V411.089H1573V409.094H1571ZM1571 413.084V415.079H1573V413.084H1571ZM1571 417.074V419.069H1573V417.074H1571ZM1571 421.064V423.059H1573V421.064H1571ZM1571 425.054V427.049H1573V425.054H1571ZM1571 429.044V431.039H1573V429.044H1571ZM1571 433.034V435.029H1573V433.034H1571ZM1571 437.024V439.019H1573V437.024H1571ZM1571 441.014V443.009H1573V441.014H1571ZM1571 445.004V446.999H1573V445.004H1571ZM1571 448.994V450.988H1573V448.994H1571ZM1571 452.983V454.978H1573V452.983H1571ZM1571 456.973V458.968H1573V456.973H1571ZM1571 460.963V462.958H1573V460.963H1571ZM1571 464.953V466.948H1573V464.953H1571ZM1571 468.943V470.938H1573V468.943H1571ZM1571 472.933V474.928H1573V472.933H1571ZM1571 476.923V478.918H1573V476.923H1571ZM1571 480.913V482.908H1573V480.913H1571ZM1571 484.903V486.898H1573V484.903H1571ZM1571 488.893V490.888H1573V488.893H1571ZM1571 492.883V494.878H1573V492.883H1571ZM1571 496.873V498.868H1573V496.873H1571ZM1571 500.863V502.858H1573V500.863H1571ZM1571 504.853V506.847H1573V504.853H1571ZM1571 508.842V510.837H1573V508.842H1571ZM1571 512.832V514.827H1573V512.832H1571ZM1571 516.822V518.817H1573V516.822H1571ZM1571 520.812V522.807H1573V520.812H1571ZM1571 524.802V526.797H1573V524.802H1571ZM1571 528.792V530.787H1573V528.792H1571ZM1571 532.782V534.777H1573V532.782H1571ZM1571 536.772V538.767H1573V536.772H1571ZM1571 540.762V542.757H1573V540.762H1571ZM1571 544.752V546.747H1573V544.752H1571ZM1571 548.742V550.737H1573V548.742H1571ZM1571 552.732V554.727H1573V552.732H1571ZM1571 556.722V558.717H1573V556.722H1571ZM1571 560.711V562.706H1573V560.711H1571ZM1571 564.701V566.696H1573V564.701H1571ZM1571 568.691V570.686H1573V568.691H1571ZM1571 572.681V574.676H1573V572.681H1571ZM1571 576.671V578.666H1573V576.671H1571ZM1571 580.661V582.656H1573V580.661H1571ZM1571 584.651V586.646H1573V584.651H1571ZM1571 588.641V590.636H1573V588.641H1571ZM1571 592.63V594.625H1573V592.63H1571ZM1571 596.62V598.615H1573V596.62H1571ZM1571 600.61V602.605H1573V600.61H1571ZM1571 604.6V606.595H1573V604.6H1571ZM1571 608.59V610.585H1573V608.59H1571ZM1571 612.58V614.575H1573V612.58H1571ZM1571 616.57V618.565H1573V616.57H1571ZM1571 620.56V622.555H1573V620.56H1571ZM1571 624.549V626.544H1573V624.549H1571ZM1571 628.539V630.534H1573V628.539H1571ZM1571 632.529V634.524H1573V632.529H1571ZM1571 636.519V638.514H1573V636.519H1571ZM1571 640.509V642.504H1573V640.509H1571ZM1571 644.499V646.494H1573V644.499H1571ZM1571 648.489V650.484H1573V648.489H1571ZM1571 652.479V654.473H1573V652.479H1571ZM1571 656.468V658.463H1573V656.468H1571ZM1571 660.458V662.453H1573V660.458H1571ZM1571 664.448V666.443H1573V664.448H1571ZM1571 668.438V670.433H1573V668.438H1571ZM1571 672.428V674.423H1573V672.428H1571ZM1571 676.418V678.413H1573V676.418H1571ZM1571 680.408V682.403H1573V680.408H1571ZM1571 684.397V686.392H1573V684.397H1571ZM1571 688.387V690.382H1573V688.387H1571ZM1571 692.377V694.372H1573V692.377H1571ZM1571 696.367V698.362H1573V696.367H1571ZM1571 700.357V702.352H1573V700.357H1571ZM1571 704.347V706.342H1573V704.347H1571ZM1571 708.337V710.332H1573V708.337H1571ZM1571 712.327V714.321H1573V712.327H1571ZM1571 716.316V718.311H1573V716.316H1571ZM1571 720.306V722.301H1573V720.306H1571ZM1571 724.296V726.291H1573V724.296H1571ZM1571 728.286V730.281H1573V728.286H1571ZM1571 732.276V734.271H1573V732.276H1571ZM1571 736.266V738.261H1573V736.266H1571ZM1571 740.256V742.251H1573V740.256H1571ZM1571 744.245V746.24H1573V744.245H1571ZM1571 748.235V750.23H1573V748.235H1571ZM1571 752.225V754.22H1573V752.225H1571ZM1571 756.215V758.21H1573V756.215H1571ZM1571 760.205V762.2H1573V760.205H1571ZM1571 764.195V766.19H1573V764.195H1571ZM1571 768.185V770.18H1573V768.185H1571ZM1571 772.175V774.17H1573V772.175H1571ZM1571 776.164V778.159H1573V776.164H1571ZM1571 780.154V782.149H1573V780.154H1571ZM1571 784.144V786.139H1573V784.144H1571ZM1571 788.134V790.129H1573V788.134H1571ZM1571 792.124V794.119H1573V792.124H1571ZM1571 796.114V798.109H1573V796.114H1571ZM1571 800.104V802.099H1573V800.104H1571ZM1571 804.093V806.088H1573V804.093H1571ZM1571 808.083V810.078H1573V808.083H1571ZM1571 812.073V814.068H1573V812.073H1571ZM1571 816.063V818.058H1573V816.063H1571ZM1571 820.053V822.048H1573V820.053H1571ZM1571 824.043V826.038H1573V824.043H1571ZM1571 828.033V830.028H1573V828.033H1571ZM1571 832.023V834.018H1573V832.023H1571ZM1571 836.012V838.007H1573V836.012H1571ZM1571 840.002V841H1573V840.002H1571Z" fill="#5CCAED" mask="url(#path-1-outside-1_636_516)"/>
</svg>
