<svg width="1571" height="756" viewBox="0 0 1571 756" fill="none" xmlns="http://www.w3.org/2000/svg">
<path d="M0 0L52.3667 112.087C104.733 223.125 209.467 448.875 314.2 475.912C418.933 504 523.667 336 628.4 336C733.133 336 837.867 504 942.6 475.912C1047.33 448.875 1152.07 223.125 1256.8 126C1361.53 28.875 1466.27 55.125 1518.63 70.0875L1571 84V756H1518.63C1466.27 756 1361.53 756 1256.8 756C1152.07 756 1047.33 756 942.6 756C837.867 756 733.133 756 628.4 756C523.667 756 418.933 756 314.2 756C209.467 756 104.733 756 52.3667 756H0V0Z" fill="#0099FF"/>
</svg>
